<svg width="50" height="17" viewBox="0 0 50 17" fill="none" xmlns="http://www.w3.org/2000/svg">
<path d="M9.95293 2.91963L3.23333 16.7712H0L8.60021 0.240133H10.6678L9.95293 2.91963ZM11.3496 16.7712L9.23808 2.59037L9.38105 0.240133H11.3166L14.374 16.7712H11.3496ZM12.1525 10.6288L11.7236 13.0926H3.3763L3.79421 10.6288H12.1525Z" fill="#F90F0F"/>
<path d="M19.777 11.3441L22.6694 11.3101C22.5081 12.5136 22.1048 13.543 21.4596 14.3983C20.8217 15.2536 20.0152 15.9084 19.0401 16.3625C18.065 16.8091 17.0055 17.021 15.8618 16.9983C14.7987 16.9756 13.9042 16.741 13.1783 16.2944C12.4598 15.8402 11.8953 15.2385 11.4847 14.4891C11.0741 13.7322 10.8028 12.892 10.6709 11.9686C10.5389 11.0452 10.5352 10.1028 10.6599 9.1415L10.8358 7.88123C10.9825 6.85939 11.2501 5.87161 11.6387 4.91789C12.0272 3.96418 12.5368 3.11643 13.1673 2.37464C13.7979 1.62529 14.5457 1.03868 15.4109 0.614808C16.2834 0.183364 17.2695 -0.0210045 18.3693 0.00170307C19.513 0.0244106 20.4772 0.281763 21.2617 0.773761C22.0462 1.25819 22.6474 1.92806 23.0653 2.78338C23.4905 3.6387 23.7288 4.63405 23.7801 5.76943H20.8437C20.8437 5.13362 20.7631 4.5735 20.6018 4.08907C20.4405 3.59707 20.1692 3.21483 19.788 2.94233C19.4067 2.66227 18.8825 2.51089 18.2153 2.48818C17.4894 2.46548 16.8662 2.61307 16.3457 2.93098C15.8325 3.24132 15.4035 3.66519 15.0589 4.2026C14.7144 4.73245 14.4431 5.31906 14.2451 5.96244C14.0472 6.59825 13.9042 7.23028 13.8162 7.85853L13.6402 9.15286C13.5743 9.66756 13.5339 10.2315 13.5193 10.8446C13.5119 11.4577 13.5743 12.0405 13.7062 12.5931C13.8455 13.138 14.0948 13.5922 14.4541 13.9555C14.8133 14.3113 15.3339 14.5005 16.0157 14.5232C16.7196 14.5459 17.3208 14.4324 17.8194 14.1826C18.3253 13.9328 18.7395 13.5657 19.0621 13.0813C19.3847 12.5968 19.623 12.0178 19.777 11.3441Z" fill="#F90F0F"/>
<path d="M27.2915 0.240133L24.5201 16.7712H21.5727L24.3551 0.240133H27.2915ZM32.1195 0.240133L31.7016 2.7039H19.1752L19.5931 0.240133H32.1195Z" fill="#F90F0F"/>
<path d="M31.2317 0.240133L28.4493 16.7712H25.5019L28.2844 0.240133H31.2317Z" fill="#F90F0F"/>
<path d="M39.6591 8.05154L39.5491 8.89172C39.4025 9.94384 39.1312 10.9581 38.7353 11.9345C38.3393 12.911 37.8188 13.7852 37.1736 14.5573C36.5284 15.3217 35.7622 15.9273 34.8751 16.3739C33.9879 16.8129 32.9798 17.021 31.8507 16.9983C30.7729 16.9756 29.8638 16.7334 29.1233 16.2717C28.3827 15.8024 27.7962 15.1817 27.3636 14.4097C26.9384 13.6376 26.6524 12.7785 26.5058 11.8324C26.3665 10.8786 26.3555 9.91356 26.4728 8.93713L26.5828 8.0856C26.7294 7.04105 27.0044 6.03435 27.4076 5.06549C27.8109 4.08907 28.3351 3.21861 28.9803 2.45412C29.6255 1.68206 30.3917 1.07653 31.2788 0.637515C32.1733 0.198502 33.1778 -0.00965072 34.2922 0.0130569C35.37 0.0281952 36.2791 0.270409 37.0196 0.739699C37.7601 1.20142 38.343 1.81831 38.7683 2.59037C39.1935 3.36242 39.4758 4.22153 39.6151 5.16768C39.7617 6.11383 39.7764 7.07511 39.6591 8.05154ZM36.5687 8.93713L36.6787 8.05154C36.7447 7.50656 36.7777 6.92373 36.7777 6.30306C36.7777 5.67481 36.7007 5.08063 36.5467 4.52051C36.3927 3.95282 36.1251 3.48732 35.7439 3.12399C35.3626 2.7531 34.8237 2.55252 34.1272 2.52224C33.394 2.49197 32.7598 2.64335 32.2246 2.9764C31.6894 3.30187 31.2385 3.74467 30.8719 4.30479C30.5126 4.85734 30.2267 5.46288 30.0141 6.1214C29.8088 6.77992 29.6621 7.42708 29.5742 8.06289L29.4642 8.94849C29.3982 9.47833 29.3652 10.0574 29.3652 10.6856C29.3652 11.3139 29.4422 11.9156 29.5962 12.4909C29.7501 13.0586 30.0177 13.5316 30.399 13.9101C30.7803 14.281 31.3191 14.4778 32.0157 14.5005C32.7562 14.5308 33.394 14.3794 33.9293 14.0463C34.4645 13.7133 34.9117 13.2705 35.271 12.7179C35.6302 12.1578 35.9162 11.5485 36.1288 10.89C36.3414 10.2239 36.4881 9.57295 36.5687 8.93713Z" fill="#F90F0F"/>
<path d="M50 0.240133L47.2176 16.7712H44.3472L39.6292 5.19038L37.6826 16.7712H34.7242L37.4956 0.240133H40.377L45.106 11.8437L47.0526 0.240133H50Z" fill="#F90F0F"/>
</svg>
