<svg width="148" height="156" viewBox="0 0 148 156" fill="none" xmlns="http://www.w3.org/2000/svg">
<g filter="url(#filter0_bdi_304_419)">
<path d="M69 46.8868C72.094 45.1004 75.906 45.1004 79 46.8868L102.775 60.6132C105.869 62.3996 107.775 65.7008 107.775 69.2735V96.7265C107.775 100.299 105.869 103.6 102.775 105.387L79 119.113C75.906 120.9 72.094 120.9 69 119.113L45.225 105.387C42.131 103.6 40.225 100.299 40.225 96.7265V69.2735C40.225 65.7008 42.131 62.3996 45.225 60.6132L69 46.8868Z" fill="white" fill-opacity="0.5" style="mix-blend-mode:overlay" shape-rendering="crispEdges"/>
</g>
<path d="M64 79.8438C64 79.4498 64.2006 79.0801 64.5382 78.8518L72.8582 73.2252C73.3023 72.9249 73.8977 72.9249 74.3418 73.2253L82.6618 78.8518C82.9994 79.0801 83.2 79.4498 83.2 79.8438V90.3741C83.2 91.3825 82.3404 92.2 81.28 92.2H65.92C64.8596 92.2 64 91.3825 64 90.3741V79.8438Z" stroke="white" stroke-width="2"/>
<path d="M76 83.8C76 85.1255 74.9255 86.2 73.6 86.2C72.2745 86.2 71.2 85.1255 71.2 83.8C71.2 82.4745 72.2745 81.4 73.6 81.4C74.9255 81.4 76 82.4745 76 83.8Z" stroke="white" stroke-width="2"/>
<defs>
<filter id="filter0_bdi_304_419" x="-59.7749" y="-54.453" width="267.55" height="274.906" filterUnits="userSpaceOnUse" color-interpolation-filters="sRGB">
<feFlood flood-opacity="0" result="BackgroundImageFix"/>
<feGaussianBlur in="BackgroundImageFix" stdDeviation="50"/>
<feComposite in2="SourceAlpha" operator="in" result="effect1_backgroundBlur_304_419"/>
<feColorMatrix in="SourceAlpha" type="matrix" values="0 0 0 0 0 0 0 0 0 0 0 0 0 0 0 0 0 0 127 0" result="hardAlpha"/>
<feOffset dy="-5"/>
<feGaussianBlur stdDeviation="20"/>
<feComposite in2="hardAlpha" operator="out"/>
<feColorMatrix type="matrix" values="0 0 0 0 0.160784 0 0 0 0 0.152941 0 0 0 0 0.509804 0 0 0 0.1 0"/>
<feBlend mode="normal" in2="effect1_backgroundBlur_304_419" result="effect2_dropShadow_304_419"/>
<feBlend mode="normal" in="SourceGraphic" in2="effect2_dropShadow_304_419" result="shape"/>
<feColorMatrix in="SourceAlpha" type="matrix" values="0 0 0 0 0 0 0 0 0 0 0 0 0 0 0 0 0 0 127 0" result="hardAlpha"/>
<feOffset dy="1"/>
<feGaussianBlur stdDeviation="0.25"/>
<feComposite in2="hardAlpha" operator="arithmetic" k2="-1" k3="1"/>
<feColorMatrix type="matrix" values="0 0 0 0 1 0 0 0 0 1 0 0 0 0 1 0 0 0 0.3 0"/>
<feBlend mode="overlay" in2="shape" result="effect3_innerShadow_304_419"/>
</filter>
</defs>
</svg>
