<svg width="43" height="16" viewBox="0 0 43 16" fill="none" xmlns="http://www.w3.org/2000/svg">
<path d="M1.46485 16C1.36554 16 1.2414 15.9661 1.09243 15.8984L1.11726 15.7206C1.1007 15.7545 1.08415 15.6444 1.0676 15.3905C1.0676 15.3397 1.09243 15.2889 1.14208 15.2381C1.14208 15.2042 1.13381 15.1619 1.11726 15.1111C1.11726 15.0603 1.10898 15.0011 1.09243 14.9333L1.01794 14.6794C1.0345 14.5608 1.04277 14.4339 1.04277 14.2984C1.05932 14.163 1.07588 14.0275 1.09243 13.8921L1.01794 13.7397V13.5619C0.984841 13.4942 0.943461 13.4265 0.893805 13.3587C0.860701 13.291 0.827597 13.2233 0.794493 13.1556V13.0794C0.794493 12.9947 0.819321 12.927 0.868977 12.8762L1.11726 12.673C1.08415 12.6392 1.05105 12.6222 1.01794 12.6222H0.993116L0.968289 12.6476C0.968289 12.6476 0.902081 12.5968 0.769665 12.4952C0.918633 12.3429 0.926909 12.2243 0.794493 12.1397C0.877253 12.0889 0.926909 12.0296 0.943461 11.9619C0.960013 11.945 0.951737 11.8857 0.918633 11.7841C0.868977 11.6487 0.844149 11.5725 0.844149 11.5556C0.827597 11.437 0.811045 11.3439 0.794493 11.2762C0.794493 11.1915 0.802769 11.1323 0.819321 11.0984L0.893805 10.946V10.7937L0.918633 10.7175L0.844149 10.6413H0.720009C0.686906 10.6074 0.670354 10.5566 0.670354 10.4889L0.744837 10.0063L0.819321 9.93016C0.835873 9.91323 0.802769 9.8709 0.720009 9.80317V9.82857C0.720009 9.82857 0.711733 9.78624 0.695181 9.70159C0.695181 9.6 0.686906 9.45608 0.670354 9.26984C0.686906 9.21905 0.695181 9.109 0.695181 8.93968C0.67863 8.92275 0.662078 8.90582 0.645526 8.88889C0.628974 8.87196 0.612422 8.84656 0.59587 8.8127L0.546214 8.12698C0.546214 8.09312 0.571042 8.05079 0.620698 8C0.604146 7.96614 0.59587 7.90688 0.59587 7.82222L0.670354 7.66984C0.670354 7.58518 0.670354 7.49206 0.670354 7.39048C0.670354 7.27196 0.662078 7.15344 0.645526 7.03492C0.645526 6.9672 0.587594 6.90794 0.47173 6.85714L0.446902 6.67937C0.51311 6.35767 0.521386 6.19683 0.47173 6.19683H0.422074C0.422074 6.19683 0.422074 6.18836 0.422074 6.17143C0.422074 6.1545 0.413798 6.13757 0.397247 6.12063L0.47173 5.91746C0.521386 5.81587 0.546214 5.74815 0.546214 5.71429C0.496558 5.68042 0.446902 5.60423 0.397247 5.48571V5.10476C0.380695 5.08783 0.372419 5.0709 0.372419 5.05397C0.372419 5.02011 0.364143 4.99471 0.347591 4.97778C0.331039 4.96085 0.339315 4.91852 0.372419 4.85079C0.355867 4.74921 0.339315 4.65608 0.322763 4.57143C0.322763 4.48677 0.322763 4.41058 0.322763 4.34286L0.347591 4.24127C0.364143 4.20741 0.372419 4.17354 0.372419 4.13968L0.322763 3.32698L0.273107 3.09841C0.256555 3.03069 0.240003 2.98836 0.223451 2.97143C0.206899 2.93757 0.198623 2.91217 0.198623 2.89524L0.248279 2.23492C0.231727 2.20106 0.215175 2.1672 0.198623 2.13333C0.182071 2.08254 0.157243 2.02328 0.12414 1.95556L0.173795 1.77778C0.206899 1.69312 0.215175 1.65079 0.198623 1.65079L0.12414 1.29524C0.140691 1.22751 0.140691 1.14286 0.12414 1.04127C0.107588 0.990476 0.0827597 0.939682 0.0496558 0.888889C0.0331039 0.838095 0.0165519 0.778836 0 0.711111L0.0496558 0.660318C0.0662077 0.677249 0.0910356 0.685714 0.12414 0.685714C0.206899 0.685714 0.264831 0.643386 0.297935 0.55873H0.372419L0.59587 0.609523C0.59587 0.609523 0.645526 0.592592 0.744837 0.55873L0.893805 0.533334C0.993116 0.533334 1.1007 0.592593 1.21657 0.711111C1.28278 0.69418 1.34898 0.626455 1.41519 0.507936C1.59726 0.609524 1.6883 0.668783 1.6883 0.685714L1.98623 0.55873C2.00278 0.55873 2.05244 0.601058 2.1352 0.685714H2.20968C2.22624 0.668783 2.24279 0.643386 2.25934 0.609523C2.29244 0.575661 2.32555 0.541799 2.35865 0.507936C2.42486 0.474074 2.48279 0.457143 2.53245 0.457143H2.55727C2.68969 0.457143 2.7559 0.541799 2.7559 0.711111C2.789 0.846561 2.789 1.00741 2.7559 1.19365L2.68141 1.37143C2.69797 1.40529 2.70624 1.46455 2.70624 1.54921C2.67314 1.65079 2.65659 1.71852 2.65659 1.75238L2.83038 2.18413C2.83038 2.26878 2.82211 2.33651 2.80555 2.3873L2.83038 3.02222C2.81383 3.08995 2.80555 3.16614 2.80555 3.25079C2.80555 3.33545 2.79728 3.42011 2.78073 3.50476L2.85521 3.63175C2.83866 3.68254 2.83038 3.78413 2.83038 3.93651C2.84693 3.97037 2.86349 4.0127 2.88004 4.06349C2.89659 4.09735 2.91314 4.14815 2.92969 4.21587L2.90487 4.54603C2.88831 4.56296 2.87176 4.57989 2.85521 4.59683C2.85521 4.61376 2.83866 4.63069 2.80555 4.64762C2.80555 4.66455 2.81383 4.67302 2.83038 4.67302C2.86349 4.70688 2.88004 4.74074 2.88004 4.7746C2.88004 4.85926 2.87176 4.93545 2.85521 5.00317C2.83866 5.0709 2.84693 5.13016 2.88004 5.18095C2.91314 5.19788 2.94625 5.23175 2.97935 5.28254C3.01245 5.3164 3.04556 5.35873 3.07866 5.40952V5.43492C3.07866 5.45185 3.07039 5.46878 3.05383 5.48571C3.05383 5.48571 3.04556 5.52804 3.02901 5.6127C3.04556 5.64656 3.05383 5.73122 3.05383 5.86667C3.05383 5.91746 3.02073 5.97672 2.95452 6.04444C2.98763 6.17989 2.9959 6.27302 2.97935 6.32381L2.95452 6.4254C2.95452 6.56085 3.02073 6.61164 3.15314 6.57778L3.92281 6.45079C3.93936 6.45079 3.98074 6.47619 4.04695 6.52698C4.11316 6.57778 4.15454 6.59471 4.17109 6.57778C4.40282 6.54391 4.60972 6.45926 4.79179 6.32381C4.90765 6.34074 4.98213 6.30688 5.01524 6.22222V6.19683C5.01524 6.1291 4.97386 6.06984 4.8911 6.01905C4.87455 5.98519 4.84972 5.95132 4.81661 5.91746C4.80006 5.86667 4.77523 5.81587 4.74213 5.76508L4.79179 5.40952C4.79179 5.40952 4.78351 5.40106 4.76696 5.38413C4.76696 5.35026 4.75868 5.29947 4.74213 5.23175C4.70903 5.14709 4.70903 5.07936 4.74213 5.02857L4.84144 5.05397C4.85799 5.05397 4.86627 5.06243 4.86627 5.07937C4.88282 5.07937 4.89937 5.07937 4.91593 5.07937C4.99869 5.07937 5.04007 5.0455 5.04007 4.97778C5.04007 4.85926 4.99869 4.8 4.91593 4.8L4.74213 4.92698V4.8L4.81661 4.46984L4.76696 4.29206C4.96558 4.2582 5.06489 4.21587 5.06489 4.16508C5.06489 4.13122 5.01524 4.10582 4.91593 4.08889C4.83317 4.08889 4.72558 4.06349 4.59316 4.0127L4.61799 3.83492C4.6511 3.73333 4.66765 3.68254 4.66765 3.68254L4.59316 3.37778C4.64282 3.12381 4.65937 2.98836 4.64282 2.97143C4.62627 2.88677 4.60972 2.81905 4.59316 2.76825C4.59316 2.70053 4.60144 2.6328 4.61799 2.56508C4.60144 2.49735 4.59316 2.42116 4.59316 2.33651C4.59316 2.25185 4.59316 2.15026 4.59316 2.03175C4.52696 1.96402 4.49385 1.8709 4.49385 1.75238C4.49385 1.63386 4.53523 1.46455 4.61799 1.24444C4.58489 1.21058 4.55178 1.17672 4.51868 1.14286C4.48558 1.10899 4.45247 1.06667 4.41937 1.01587L4.51868 0.685714C4.51868 0.651851 4.46902 0.558729 4.36971 0.406348C4.41937 0.355556 4.49385 0.321694 4.59316 0.304763C4.67592 0.304763 4.75041 0.321694 4.81661 0.355556C4.84972 0.40635 4.8911 0.431747 4.94075 0.431747C5.02351 0.397884 5.10627 0.364021 5.18903 0.330159C5.27179 0.296296 5.36283 0.262433 5.46214 0.228572C5.52835 0.228572 5.56973 0.253969 5.58628 0.304763C5.60283 0.372487 5.66076 0.406348 5.76008 0.406348C5.84283 0.406348 5.96697 0.347089 6.13249 0.228572C6.1656 0.228572 6.1987 0.245503 6.2318 0.279364V0.355556C6.18215 0.372487 6.14077 0.414815 6.10767 0.48254L6.13249 0.609523L6.20698 0.63492C6.27319 0.63492 6.29801 0.601058 6.28146 0.533334V0.406348C6.39732 0.372487 6.51319 0.330159 6.62905 0.279364C6.74492 0.228572 6.86078 0.186244 6.97664 0.15238C6.99319 0.15238 7.05113 0.169312 7.15044 0.203175C7.13389 0.237037 7.12561 0.321693 7.12561 0.457143C7.14216 0.491005 7.15871 0.533333 7.17527 0.584127C7.19182 0.617989 7.20837 0.668782 7.22492 0.736507C7.20837 0.804232 7.20009 0.965079 7.20009 1.21905L7.05113 1.32063C6.98492 1.37143 6.95181 1.41376 6.95181 1.44762C6.98492 1.46455 7.03457 1.45608 7.10078 1.42222C7.16699 1.43915 7.20009 1.48148 7.20009 1.54921C7.18354 1.56614 7.16699 1.6 7.15044 1.65079C7.13389 1.68466 7.11733 1.72698 7.10078 1.77778L7.17527 1.87936C7.20837 1.93016 7.20837 2.01482 7.17527 2.13333C7.15871 2.13333 7.15871 2.1418 7.17527 2.15873C7.22492 2.26032 7.24975 2.36191 7.24975 2.46349C7.24975 2.6328 7.20009 2.78519 7.10078 2.92063C7.01802 3.03915 6.91043 3.10688 6.77802 3.12381L6.70354 3.09841C6.68698 3.09841 6.67043 3.09841 6.65388 3.09841C6.65388 3.08148 6.6456 3.07302 6.62905 3.07302C6.59595 3.10688 6.5794 3.14074 6.5794 3.1746C6.59595 3.2254 6.62078 3.26772 6.65388 3.30159L7.00147 3.35238C7.05113 3.35238 7.09251 3.33545 7.12561 3.30159L7.07595 3.47936L7.12561 3.50476L7.27458 3.42857C7.32423 3.4963 7.35734 3.56402 7.37389 3.63175C7.37389 3.69947 7.36561 3.7672 7.34906 3.83492C7.34906 3.90265 7.34079 3.97884 7.32423 4.06349C7.35734 4.13122 7.37389 4.20741 7.37389 4.29206C7.35734 4.39365 7.2663 4.5545 7.10078 4.7746C7.18354 4.80847 7.28285 4.89312 7.39872 5.02857V5.20635C7.41527 5.24021 7.43182 5.28254 7.44837 5.33333C7.48148 5.3672 7.5063 5.41799 7.52286 5.48571L7.4732 5.63809C7.4401 5.73968 7.42354 5.79048 7.42354 5.79048L7.52286 6.09524V6.27302C7.55596 6.30688 7.58079 6.34921 7.59734 6.4L7.57251 6.55238C7.58906 6.63704 7.59734 6.74709 7.59734 6.88254C7.59734 7.00106 7.59734 7.13651 7.59734 7.28889L7.54768 7.31429L7.4732 7.1873V7.1619C7.4732 7.1619 7.46492 7.1619 7.44837 7.1619C7.44837 7.1619 7.4401 7.17037 7.42354 7.1873C7.32423 7.1873 7.27458 7.24656 7.27458 7.36508C7.30768 7.46667 7.42354 7.54286 7.62217 7.59365C7.58906 7.69524 7.57251 7.74603 7.57251 7.74603L7.69665 8.10159C7.647 8.13545 7.60562 8.17778 7.57251 8.22857C7.62217 8.34709 7.647 8.45714 7.647 8.55873C7.647 8.67725 7.59734 8.7873 7.49803 8.88889L7.59734 8.93968C7.59734 8.97355 7.59734 9.01587 7.59734 9.06667C7.61389 9.11746 7.63044 9.17672 7.647 9.24444L7.69665 9.44762C7.69665 9.53228 7.69665 9.61693 7.69665 9.70159C7.7132 9.76931 7.72148 9.83704 7.72148 9.90476C7.72148 10.1587 7.69665 10.2857 7.647 10.2857H7.62217C7.60562 10.2857 7.58079 10.2857 7.54768 10.2857C7.53113 10.2688 7.51458 10.2603 7.49803 10.2603C7.41527 10.2603 7.37389 10.2772 7.37389 10.3111C7.37389 10.3788 7.48148 10.4889 7.69665 10.6413C7.7132 10.6751 7.6801 10.709 7.59734 10.7429L7.57251 10.7937C7.57251 10.7937 7.58906 10.8444 7.62217 10.946C7.70493 11.1323 7.72976 11.2423 7.69665 11.2762C7.66355 11.2931 7.61389 11.3016 7.54768 11.3016L7.59734 11.4032C7.6801 11.454 7.77941 11.5471 7.89528 11.6825L7.82079 11.7841C7.80424 11.818 7.79596 11.8688 7.79596 11.9365C7.79596 12.0042 7.78769 12.0804 7.77114 12.1651L7.82079 12.3429C7.8539 12.4275 7.83734 12.4868 7.77114 12.5206L7.74631 12.5714C7.87872 12.5884 7.95321 12.6899 7.96976 12.8762C8.00286 12.9608 7.99459 13.037 7.94493 13.1048L7.87045 13.2063C7.87045 13.2741 7.84562 13.3757 7.79596 13.5111C7.86217 13.5619 7.92838 13.655 7.99459 13.7905C7.99459 13.8921 7.95321 14.0106 7.87045 14.146L8.01941 14.273C8.00286 14.3238 7.99459 14.4169 7.99459 14.5524L8.06907 14.781V14.8317C8.06907 14.9164 8.03597 14.9926 7.96976 15.0603C8.01941 15.1111 8.07735 15.1365 8.14355 15.1365C8.14355 15.1534 8.13528 15.1873 8.11873 15.2381C8.11873 15.272 8.11045 15.3143 8.0939 15.3651C8.02769 15.4667 7.91183 15.5175 7.74631 15.5175C7.6801 15.4497 7.62217 15.3566 7.57251 15.2381L7.647 15.1365C7.63044 15.1026 7.60562 15.0688 7.57251 15.0349C7.53941 15.0011 7.5063 14.9503 7.4732 14.8825H7.32423V14.9587C7.34079 15.0095 7.40699 15.0942 7.52286 15.2127L7.34906 15.4667C7.28285 15.4836 7.20009 15.5005 7.10078 15.5175C7.01802 15.5344 6.93526 15.5513 6.8525 15.5683C6.83595 15.5513 6.80285 15.5344 6.75319 15.5175C6.72009 15.5005 6.67871 15.4836 6.62905 15.4667C6.6125 15.4836 6.5794 15.5005 6.52974 15.5175C6.49664 15.5344 6.45526 15.5429 6.4056 15.5429H6.15732L5.61111 15.6952C5.46214 15.6952 5.39593 15.6444 5.41248 15.5429L5.43731 15.4159C5.45386 15.3651 5.46214 15.3228 5.46214 15.2889C5.44559 15.255 5.43731 15.2127 5.43731 15.1619C5.43731 15.0942 5.43731 15.0265 5.43731 14.9587C5.43731 14.9249 5.47042 14.8741 5.53662 14.8063C5.52007 14.7386 5.45386 14.6794 5.338 14.6286V14.4508C5.42076 14.4 5.48697 14.2392 5.53662 13.9683H5.5118C5.42904 13.9683 5.34628 13.9344 5.26352 13.8667L5.23869 13.6889C5.22214 13.655 5.20559 13.6296 5.18903 13.6127C5.18903 13.5958 5.18903 13.5788 5.18903 13.5619L5.23869 13.3079C5.25524 13.2233 5.26352 13.1471 5.26352 13.0794C5.26352 12.9947 5.26352 12.9354 5.26352 12.9016L5.23869 12.8508C5.25524 12.8339 5.26352 12.7323 5.26352 12.546L5.21386 11.581C5.24696 11.564 5.3049 11.5132 5.38766 11.4286L5.21386 11.327C5.19731 11.2423 5.18076 11.1661 5.16421 11.0984C5.14765 11.0138 5.1311 10.9376 5.11455 10.8698L5.16421 10.7683C5.19731 10.7005 5.21386 10.6667 5.21386 10.6667C5.14765 10.5989 5.10627 10.5228 5.08972 10.4381L5.16421 10.2603H5.18903C5.23869 10.2603 5.24696 10.1587 5.21386 9.95556C5.19731 9.76931 5.16421 9.65926 5.11455 9.6254C5.04834 9.55767 5.01524 9.46455 5.01524 9.34603V9.29524C5.01524 9.21058 5.04007 9.13439 5.08972 9.06667C4.99041 9.06667 4.85799 9.00741 4.69248 8.88889C4.67592 8.93968 4.60972 9.00741 4.49385 9.09206C4.42764 9.09206 4.36144 9.09206 4.29523 9.09206C4.22902 9.09206 4.15454 9.0836 4.07178 9.06667L3.92281 8.96508C3.87315 9.01587 3.79867 9.06667 3.69936 9.11746L3.6497 9.09206H3.55039C3.55039 9.09206 3.50901 9.11746 3.42625 9.16825C3.36004 9.21905 3.31039 9.24444 3.27728 9.24444L3.25246 9.21905H3.22763C3.17797 9.21905 3.13659 9.24444 3.10349 9.29524L3.25246 9.52381C3.28556 9.54074 3.28556 9.61693 3.25246 9.75238C3.25246 9.80317 3.27728 9.85397 3.32694 9.90476C3.31039 9.88783 3.30211 9.96402 3.30211 10.1333L3.2028 10.2603C3.25246 10.3111 3.27728 10.3958 3.27728 10.5143V10.819C3.31039 10.9037 3.34349 10.9545 3.3766 10.9714C3.29384 11.0561 3.25246 11.1153 3.25246 11.1492L3.40142 11.581C3.40142 11.6148 3.39315 11.6571 3.3766 11.7079C3.3766 11.7418 3.36832 11.7926 3.35177 11.8603V11.9111C3.35177 11.9619 3.3766 12.0296 3.42625 12.1143C3.4428 12.1312 3.45108 12.1735 3.45108 12.2413L3.42625 12.6222C3.16142 12.8254 3.02901 12.9608 3.02901 13.0286C3.02901 13.0794 3.07866 13.1217 3.17797 13.1556L3.52556 13.2571C3.52556 13.2741 3.52556 13.3418 3.52556 13.4603C3.52556 13.5619 3.53384 13.7228 3.55039 13.9429H3.25246C3.21935 14.0106 3.21108 14.0783 3.22763 14.146V14.1714C3.22763 14.2222 3.26073 14.2815 3.32694 14.3492C3.3766 14.3153 3.40142 14.2815 3.40142 14.2476H3.50074C3.6166 14.5016 3.67453 14.6709 3.67453 14.7556L3.55039 14.9333C3.55039 14.9333 3.57522 14.9672 3.62488 15.0349C3.65798 15.0857 3.67453 15.145 3.67453 15.2127C3.67453 15.2804 3.62487 15.3312 3.52556 15.3651C3.57522 15.4159 3.62488 15.4921 3.67453 15.5937C3.67453 15.6106 3.6497 15.6614 3.60005 15.746C3.55039 15.8138 3.50901 15.8476 3.47591 15.8476L3.12832 15.7714C3.07866 15.8053 2.9959 15.8307 2.88004 15.8476L2.65659 15.8222L2.40831 15.7714L1.98623 15.8984L1.76278 15.8222C1.69657 15.8222 1.65519 15.8561 1.63864 15.9238C1.58899 15.9746 1.53105 16 1.46485 16ZM0.993116 1.44762C1.04277 1.46455 1.09243 1.43915 1.14208 1.37143C1.12553 1.3545 1.09243 1.34603 1.04277 1.34603C0.993116 1.34603 0.976564 1.37989 0.993116 1.44762ZM1.9614 1.98095C1.97796 1.94709 1.96141 1.91323 1.91175 1.87936C1.8952 1.8455 1.86209 1.85397 1.81244 1.90476C1.84554 1.95556 1.8952 1.98095 1.9614 1.98095ZM5.16421 2.89524L5.21386 2.81905C5.21386 2.73439 5.25524 2.67513 5.338 2.64127C5.42076 2.60741 5.46214 2.56508 5.46214 2.51429L5.43731 2.4381V2.4127C5.40421 2.37884 5.338 2.37884 5.23869 2.4127C5.27179 2.51429 5.27179 2.58201 5.23869 2.61587C5.15593 2.61587 5.08972 2.64127 5.04007 2.69206L5.16421 2.89524ZM1.91175 5.07937C1.91175 5.0455 1.8952 5.01164 1.86209 4.97778C1.86209 4.96085 1.84554 4.96931 1.81244 5.00317L1.91175 5.07937ZM2.5821 6.14603C2.5821 6.1291 2.5821 6.12063 2.5821 6.12063C2.59865 6.1037 2.60693 6.09524 2.60693 6.09524C2.60693 5.99365 2.55727 5.97672 2.45796 6.04444C2.45796 6.07831 2.49934 6.11217 2.5821 6.14603ZM4.86627 6.90794C4.84972 6.90794 4.87455 6.93333 4.94075 6.98413V6.90794C4.9242 6.87407 4.89937 6.87407 4.86627 6.90794ZM5.21386 8.25397C5.23041 8.23704 5.23869 8.21164 5.23869 8.17778C5.23869 8.12698 5.20559 8.11005 5.13938 8.12698C5.10627 8.16085 5.1311 8.20317 5.21386 8.25397ZM1.31588 9.49841C1.36554 9.49841 1.39036 9.48148 1.39036 9.44762V9.37143L1.21657 9.34603L1.19174 9.42222C1.19174 9.43915 1.20829 9.46455 1.2414 9.49841H1.31588ZM5.58628 12.6984C5.80146 12.6138 5.89249 12.5291 5.85939 12.4444C5.85939 12.3767 5.80973 12.3598 5.71042 12.3937L5.58628 12.6984ZM5.23869 12.8254V12.8508V12.8254ZM2.18486 14.4508C2.30072 14.4339 2.35865 14.3746 2.35865 14.273C2.35865 14.0868 2.309 13.9936 2.20968 13.9936C2.02761 14.0275 1.93658 14.0868 1.93658 14.1714C1.93658 14.1884 1.93658 14.2138 1.93658 14.2476C1.95313 14.2815 1.97796 14.3153 2.01106 14.3492C2.07727 14.4169 2.1352 14.4508 2.18486 14.4508ZM6.75319 14.9841C6.78629 14.9841 6.8194 14.9418 6.8525 14.8571C6.8194 14.8402 6.78629 14.8487 6.75319 14.8825C6.72009 14.9164 6.72009 14.9503 6.75319 14.9841Z" fill="#F90F0F"/>
<path d="M13.5849 15.7714L13.1877 15.6952L12.9394 15.746C12.8732 15.746 12.7904 15.746 12.6911 15.746C12.6084 15.746 12.5256 15.7376 12.4429 15.7206L12.2194 15.619H11.9711C11.8718 15.5005 11.7146 15.4159 11.4994 15.3651C11.2842 15.3481 11.1353 15.2635 11.0525 15.1111L10.978 15.0349C10.9284 15.0519 10.8456 15.0434 10.7297 15.0095C10.6635 14.9249 10.5808 14.8317 10.4815 14.7302C10.3821 14.6286 10.2663 14.5101 10.1339 14.3746C10.1339 14.3407 10.1256 14.2984 10.109 14.2476C10.109 14.1968 10.1008 14.1376 10.0842 14.0698C10.0345 14.019 9.97662 13.9598 9.91041 13.8921C9.86075 13.8074 9.80282 13.7058 9.73661 13.5873C9.76972 13.4857 9.76972 13.3333 9.73661 13.1302L9.66213 13.0032V12.7492C9.66213 12.6646 9.66213 12.563 9.66213 12.4444C9.66213 12.3259 9.65385 12.2074 9.6373 12.0889C9.58765 12.0381 9.53799 11.9619 9.48833 11.8603L9.43868 11.3778L9.48833 11.073L9.51316 10.7683C9.51316 10.7513 9.49661 10.709 9.46351 10.6413V10.3619C9.44695 10.3111 9.42213 10.2349 9.38902 10.1333L9.46351 9.39682L9.31454 8.33016L9.38902 8.15238C9.42213 8.03386 9.4304 7.94921 9.41385 7.89841L9.33937 7.66984C9.33937 7.56825 9.33937 7.44127 9.33937 7.28889C9.33937 7.11958 9.33109 6.92487 9.31454 6.70476C9.24833 6.62011 9.21523 6.47619 9.21523 6.27302C9.19868 6.1545 9.19868 6.06984 9.21523 6.01905C9.26488 5.90053 9.29799 5.8328 9.31454 5.81587L9.1904 5.68889C9.17385 5.51958 9.16557 5.37566 9.16557 5.25714C9.16557 5.12169 9.16557 4.99471 9.16557 4.87619C9.16557 4.75767 9.16557 4.65608 9.16557 4.57143C9.16557 4.46984 9.17385 4.38518 9.1904 4.31746C9.25661 4.16508 9.30626 4.08042 9.33937 4.06349C9.42213 4.04656 9.50489 3.95344 9.58765 3.78413L9.61247 3.75873C9.61247 3.72487 9.54627 3.66561 9.41385 3.58095C9.28144 3.4963 9.21523 3.42857 9.21523 3.37778C9.23178 3.34392 9.24833 3.31005 9.26488 3.27619C9.28144 3.24233 9.29799 3.19153 9.31454 3.12381C9.28144 2.98836 9.26488 2.84444 9.26488 2.69206C9.33109 2.60741 9.40557 2.48889 9.48833 2.33651C9.58765 2.18413 9.69523 2.01482 9.8111 1.82857V1.67619C9.82765 1.6254 9.85248 1.56614 9.88558 1.49841C9.91868 1.43069 9.95179 1.36296 9.98489 1.29524L10.1339 1.19365C10.2166 1.14286 10.3408 1.04127 10.5063 0.888889L10.8042 0.609523C10.8042 0.609523 10.8208 0.609523 10.8539 0.609523C10.887 0.609523 10.9366 0.601058 11.0028 0.584127C11.0359 0.550265 11.0525 0.507937 11.0525 0.457143C11.1021 0.474074 11.1435 0.491005 11.1766 0.507936C11.2263 0.524868 11.2677 0.524868 11.3008 0.507936L11.4001 0.48254C11.6815 0.279364 11.847 0.177777 11.8966 0.177777L12.0208 0.228572C12.0208 0.228572 12.0208 0.237037 12.0208 0.253968C12.0373 0.253968 12.0539 0.253968 12.0704 0.253968C12.3022 0.253968 12.4098 0.194709 12.3932 0.076191C12.476 0.025397 12.5422 0 12.5918 0C12.658 0.033862 12.6994 0.0846555 12.716 0.15238C12.716 0.169311 12.7573 0.177777 12.8401 0.177777C12.8732 0.143915 12.9146 0.118519 12.9642 0.101588C13.0304 0.0677245 13.0967 0.0423275 13.1629 0.0253965C13.2291 0.0423275 13.2953 0.0677245 13.3615 0.101588C13.4277 0.118519 13.5022 0.135449 13.5849 0.15238L13.7836 0.126984H13.858C13.9077 0.126984 13.9491 0.135449 13.9822 0.15238C14.0318 0.15238 14.0815 0.160846 14.1312 0.177777C14.1477 0.262434 14.2056 0.338625 14.3049 0.406348H14.3794C14.4787 0.406348 14.6029 0.431745 14.7519 0.48254C14.7684 0.499471 14.785 0.533333 14.8015 0.584127C14.8181 0.617989 14.8346 0.660317 14.8512 0.711111V0.863491L14.9008 0.888889C14.967 0.821164 15.0415 0.787302 15.1243 0.787302H15.1491C15.2484 0.787302 15.3726 0.888889 15.5215 1.09206C15.5381 1.10899 15.5546 1.15132 15.5712 1.21905C15.5877 1.26984 15.6043 1.33757 15.6208 1.42222L15.745 1.49841C15.7615 1.49841 15.7781 1.54074 15.7946 1.6254C15.8277 1.64233 15.8939 1.70159 15.9932 1.80317L16.167 1.87936C16.167 1.96402 16.1339 2.04868 16.0677 2.13333C16.0015 2.25185 15.9684 2.34497 15.9684 2.4127V2.48889C16.0015 2.62434 16.1422 2.78519 16.3905 2.97143L16.5395 3.32698C16.5395 3.32698 16.5312 3.36085 16.5146 3.42857C16.4981 3.47936 16.4733 3.56402 16.4401 3.68254C16.4401 3.73333 16.4484 3.7672 16.465 3.78413C16.4153 4.05503 16.3905 4.2328 16.3905 4.31746L16.5146 4.59683C16.5146 4.64762 16.4567 4.70688 16.3408 4.7746C16.225 4.84233 16.167 4.89312 16.167 4.92698V4.95238C16.2498 4.98624 16.3243 5.03704 16.3905 5.10476C16.4733 5.15556 16.5477 5.21481 16.6139 5.28254C16.6139 5.29947 16.5974 5.3418 16.5643 5.40952L16.5146 5.51111C16.5312 5.5619 16.5395 5.67196 16.5395 5.84127C16.5229 5.92593 16.5146 5.95979 16.5146 5.94286C16.5146 5.92593 16.5146 5.93439 16.5146 5.96825L16.5395 6.4254V6.45079L16.5146 6.55238C16.5808 6.65397 16.6388 6.80635 16.6884 7.00952V7.06032C16.6884 7.11111 16.6636 7.17884 16.6139 7.26349L16.5395 7.41587V7.49206C16.5395 7.62751 16.5643 7.84762 16.6139 8.15238L16.5146 8.17778C16.465 8.17778 16.4401 8.19471 16.4401 8.22857C16.4401 8.22857 16.4815 8.2709 16.5643 8.35556C16.5643 8.52487 16.6057 8.62646 16.6884 8.66032C16.7546 8.71111 16.7877 8.7873 16.7877 8.88889C16.7546 8.97355 16.7546 9.10899 16.7877 9.29524C16.7712 9.39682 16.7133 9.44762 16.6139 9.44762C16.5808 9.44762 16.556 9.43915 16.5395 9.42222C16.5229 9.40529 16.4981 9.39682 16.465 9.39682C16.3988 9.43069 16.3408 9.47301 16.2912 9.52381C16.3739 9.5746 16.4319 9.6 16.465 9.6C16.5146 9.6 16.5726 9.5746 16.6388 9.52381C16.6884 9.54074 16.7133 9.60847 16.7133 9.72698L16.7381 9.98095C16.7877 10.0148 16.8208 10.0741 16.8374 10.1587C16.8374 10.2434 16.8043 10.3196 16.7381 10.3873C16.7381 10.3873 16.7546 10.4042 16.7877 10.4381L16.8622 10.5397L16.8126 10.6667C16.796 10.7175 16.7877 10.7598 16.7877 10.7937C16.7877 10.8275 16.7877 10.8529 16.7877 10.8698L16.6884 10.946C16.8208 11.1831 16.8871 11.3439 16.8871 11.4286L16.8622 11.5048C16.8622 11.5217 16.8539 11.5386 16.8374 11.5556C16.8208 11.5556 16.8126 11.564 16.8126 11.581C16.8291 11.6148 16.8374 11.6656 16.8374 11.7333C16.8374 11.7841 16.8374 11.8434 16.8374 11.9111C16.8043 11.928 16.7546 11.9873 16.6884 12.0889L16.7381 12.6222V12.7238C16.7381 12.8593 16.7133 12.9524 16.6636 13.0032L16.5891 13.0794L16.5643 13.3333C16.4319 13.5196 16.3657 13.6042 16.3657 13.5873C16.3657 13.6042 16.3905 13.6296 16.4401 13.6635C16.4236 13.6804 16.407 13.6974 16.3905 13.7143C16.3739 13.7143 16.3574 13.7312 16.3408 13.7651L16.316 14.0444C16.2995 14.0614 16.1919 14.163 15.9932 14.3492C15.8939 14.4169 15.836 14.5185 15.8195 14.654C15.687 14.7386 15.5794 14.7979 15.4967 14.8317C15.5132 14.8148 15.4967 14.8063 15.447 14.8063L15.1243 15.2889C15.0912 15.3058 15.0498 15.3143 15.0001 15.3143C14.967 15.3143 14.9174 15.3228 14.8512 15.3397L14.6525 15.4667C14.6194 15.4667 14.5781 15.4667 14.5284 15.4667C14.4953 15.4836 14.4456 15.5005 14.3794 15.5175L13.9325 15.746C13.8994 15.746 13.8746 15.7376 13.858 15.7206C13.8415 15.7037 13.8084 15.6952 13.7587 15.6952L13.5849 15.7714ZM14.0815 1.52381L14.1808 1.44762C14.1808 1.43069 14.1477 1.43069 14.0815 1.44762V1.52381ZM14.4043 1.67619C14.4539 1.69312 14.5036 1.66772 14.5532 1.6C14.5367 1.58307 14.5036 1.5746 14.4539 1.5746C14.4208 1.5746 14.4043 1.60846 14.4043 1.67619ZM13.0884 2.26032L13.2125 2.23492L13.1629 2.13333C13.0801 2.1672 13.0553 2.20952 13.0884 2.26032ZM12.9642 13.4857C12.9973 13.4857 13.0967 13.4349 13.2622 13.3333C13.3449 13.418 13.4029 13.4603 13.436 13.4603C13.5518 13.4434 13.6098 13.4095 13.6098 13.3587V13.181C13.6263 13.1302 13.7091 13.0624 13.858 12.9778C13.8912 12.9947 13.916 13.0709 13.9325 13.2063H14.0567L14.1063 13.1556C14.2056 12.9185 14.2553 12.8 14.2553 12.8L14.1808 12.5968C14.1312 12.4614 14.1063 12.3937 14.1063 12.3937L14.1312 12.2667C14.1312 12.2497 14.1312 12.2413 14.1312 12.2413C14.1477 12.2243 14.156 12.2074 14.156 12.1905C14.1394 12.1397 14.1312 12.0212 14.1312 11.8349C14.1477 11.6317 14.1643 11.5386 14.1808 11.5556C14.1477 11.4201 14.1229 11.3016 14.1063 11.2C14.0898 11.0815 14.0815 10.9884 14.0815 10.9206C14.0815 10.9037 14.1477 10.8275 14.2801 10.6921C14.396 10.5905 14.4539 10.5312 14.4539 10.5143L14.2801 10.3111L14.3298 9.82857L14.4291 9.6254C14.4125 9.60847 14.3463 9.5746 14.2305 9.52381C14.1312 9.47301 14.0815 9.43069 14.0815 9.39682V9.37143C13.9987 9.15132 13.9574 8.98201 13.9574 8.86349L14.0318 8.50794L14.0815 8.20317L14.007 8.05079C14.0236 7.93227 14.0236 7.77143 14.007 7.56825C13.9408 7.50053 13.8994 7.44127 13.8829 7.39048C13.8829 7.39048 13.8994 7.33122 13.9325 7.2127L13.9822 7.06032C13.9656 7.02645 13.9491 6.99259 13.9325 6.95873C13.916 6.92487 13.8994 6.88254 13.8829 6.83175L13.9574 6.29841L14.0815 6.24762C14.1312 6.21376 14.156 6.17143 14.156 6.12063C14.0898 6.1037 14.007 6.05291 13.9077 5.96825C13.8249 5.84974 13.7836 5.75661 13.7836 5.68889L13.8829 5.48571C13.9325 5.35026 13.9574 5.28254 13.9574 5.28254C13.9243 5.26561 13.8746 5.20635 13.8084 5.10476L13.9325 4.74921C13.8994 4.71534 13.8663 4.67302 13.8332 4.62222C13.8001 4.5545 13.767 4.48677 13.7339 4.41905C13.7339 4.38519 13.767 4.33439 13.8332 4.26667C13.8167 4.21587 13.8084 4.13122 13.8084 4.0127C13.8084 4.0127 13.8249 3.97884 13.858 3.91111C13.8912 3.87725 13.9077 3.84339 13.9077 3.80952L13.7836 3.63175L13.7587 3.2C13.7587 3.16614 13.7339 3.12381 13.6843 3.07302C13.6511 3.05608 13.6098 3.03069 13.5601 2.99683C13.527 2.96296 13.4774 2.9291 13.4111 2.89524L13.2622 2.61587C13.2787 2.6328 13.0967 2.64974 12.716 2.66667H12.6911C12.6415 2.66667 12.5256 2.59894 12.3435 2.46349C12.1118 2.32804 11.9546 2.25185 11.8718 2.23492C11.8222 2.23492 11.7725 2.28571 11.7228 2.3873C11.6897 2.48889 11.6815 2.54815 11.698 2.56508C11.698 2.61587 11.7559 2.70053 11.8718 2.81905L12.0456 2.99683L11.9711 3.32698L11.8718 3.53016C11.8718 3.54709 11.8718 3.57249 11.8718 3.60635C11.8718 3.64021 11.8635 3.67407 11.847 3.70794C11.8304 3.72487 11.8139 3.7418 11.7973 3.75873C11.7808 3.77566 11.7642 3.79259 11.7477 3.80952C11.7477 3.82645 11.7394 3.86032 11.7228 3.91111C11.7228 3.94497 11.7146 3.99577 11.698 4.06349L11.6484 4.24127C11.6484 4.27513 11.6732 4.31746 11.7228 4.36825C11.7725 4.41905 11.7973 4.46138 11.7973 4.49524L11.7725 4.8C11.7891 4.83386 11.8056 4.88466 11.8222 4.95238C11.8553 5.02011 11.8801 5.0963 11.8966 5.18095V5.25714C11.8966 5.27407 11.8966 5.30794 11.8966 5.35873C11.8966 5.40952 11.8884 5.46878 11.8718 5.53651C11.8553 5.5873 11.8635 5.62963 11.8966 5.66349L11.9463 5.68889C11.8801 5.72275 11.8635 5.78201 11.8966 5.86667C11.9463 6.05291 11.9628 6.16296 11.9463 6.19683L11.8718 6.4C11.8884 6.46773 11.8966 6.54391 11.8966 6.62857C11.8966 6.6963 11.9049 6.78095 11.9215 6.88254C11.8718 6.93333 11.8222 7.00952 11.7725 7.11111L12.0208 7.26349C12.0539 7.31429 12.0787 7.39894 12.0953 7.51746C12.0953 7.63598 12.0622 7.76296 11.996 7.89841C11.9463 7.91534 11.8966 7.96614 11.847 8.05079C11.9132 8.08465 11.9711 8.16085 12.0208 8.27937L11.9215 8.66032C11.938 8.69418 11.9546 8.73651 11.9711 8.7873C11.9877 8.83809 12.0042 8.89735 12.0208 8.96508L11.996 9.04127C11.9628 9.07513 11.9463 9.10053 11.9463 9.11746C11.9297 9.18519 11.9132 9.26984 11.8966 9.37143C11.8966 9.45608 11.8966 9.54074 11.8966 9.6254C11.9297 9.64233 11.9546 9.69312 11.9711 9.77778C11.9711 9.82857 11.9711 9.8963 11.9711 9.98095C11.9877 10.0487 12.0042 10.1249 12.0208 10.2095L12.1697 10.3619C12.2029 10.3958 12.2194 10.4635 12.2194 10.5651L11.996 10.6667C11.9132 10.7005 11.8718 10.7767 11.8718 10.8952C11.8718 10.8952 11.9794 11.0053 12.1946 11.2254C12.2111 11.2423 12.2277 11.2508 12.2442 11.2508H12.2194L12.1946 11.2254C12.178 11.2254 12.1449 11.2254 12.0953 11.2254C12.1615 11.2254 12.1946 11.2762 12.1946 11.3778C12.178 11.4455 12.1532 11.5132 12.1201 11.581C12.1035 11.6487 12.0787 11.7249 12.0456 11.8095C12.0456 11.8095 12.087 11.8519 12.1697 11.9365C12.236 12.0042 12.2691 12.055 12.2691 12.0889C12.2691 12.0889 12.2442 12.1312 12.1946 12.2159C12.1449 12.2836 12.1201 12.3344 12.1201 12.3683C12.1201 12.3683 12.1615 12.436 12.2442 12.5714C12.327 12.7069 12.3684 12.7831 12.3684 12.8C12.3684 12.8677 12.3187 12.927 12.2194 12.9778V13.0794C12.2194 13.2487 12.2773 13.3249 12.3932 13.3079L12.4925 13.2825H12.5422C12.658 13.2825 12.7491 13.3164 12.8153 13.3841C12.8815 13.4519 12.9311 13.4857 12.9642 13.4857ZM9.93524 2.48889C9.98489 2.50582 10.0345 2.47196 10.0842 2.3873C10.0677 2.37037 10.0428 2.3619 10.0097 2.3619C9.96006 2.3619 9.93524 2.40423 9.93524 2.48889ZM10.9532 2.74286C11.0028 2.75979 11.0525 2.72593 11.1021 2.64127C11.0525 2.60741 11.0111 2.60741 10.978 2.64127C10.9615 2.6582 10.9532 2.69206 10.9532 2.74286ZM10.4815 3.53016C10.498 3.53016 10.5311 3.53016 10.5808 3.53016C10.6304 3.53016 10.6966 3.52169 10.7794 3.50476C10.8621 3.50476 10.9035 3.4709 10.9035 3.40317L10.8539 3.2254H10.7546L10.4815 3.53016ZM15.025 3.96191C15.0415 3.94497 15.0498 3.91111 15.0498 3.86032C15.0167 3.82645 14.9753 3.80952 14.9256 3.80952L14.9008 3.93651L15.025 3.96191ZM14.9256 5.63809L15.2484 5.40952C15.1988 5.37566 15.1739 5.3418 15.1739 5.30794C15.1739 5.18942 15.1325 5.0963 15.0498 5.02857L14.9505 5.05397C14.9339 5.0709 14.9339 5.12169 14.9505 5.20635C14.9339 5.25714 14.9091 5.3164 14.876 5.38413C14.8429 5.43492 14.8098 5.50265 14.7767 5.5873C14.8429 5.62116 14.8925 5.63809 14.9256 5.63809ZM9.83593 7.28889C9.85248 7.22116 9.8442 7.13651 9.8111 7.03492L9.6373 7.11111L9.83593 7.28889ZM9.86075 7.9746C9.94351 7.94074 10.0263 7.88148 10.109 7.79682C10.0428 7.7291 9.98489 7.69524 9.93524 7.69524V7.74603C9.93524 7.77989 9.91041 7.83915 9.86075 7.92381V7.9746ZM15.8691 8.63492L16.1174 8.55873V8.45714L15.9932 8.43175L15.8691 8.63492ZM16.3408 8.7619C16.407 8.77884 16.4733 8.75344 16.5395 8.68571L16.3905 8.66032C16.3574 8.69418 16.3408 8.72804 16.3408 8.7619ZM15.9436 8.86349V8.8127H15.8691V8.86349H15.9436ZM10.258 10.0063L10.2828 9.93016L10.109 9.90476L10.258 10.0063ZM9.98489 10.6667L10.109 10.6159L9.98489 10.5905V10.6667ZM14.7767 11.4032C14.8098 11.4032 14.785 11.3778 14.7022 11.327C14.7022 11.327 14.6856 11.3439 14.6525 11.3778C14.6691 11.3947 14.7105 11.4032 14.7767 11.4032ZM10.8787 11.9111C10.9615 11.9111 11.0608 11.8688 11.1766 11.7841V11.6825C11.0939 11.581 11.0277 11.5132 10.978 11.4794L10.7546 11.8095C10.7546 11.8434 10.7711 11.8772 10.8042 11.9111H10.8787ZM15.447 11.7587L15.4222 11.6317C15.3891 11.6317 15.3643 11.6402 15.3477 11.6571C15.3477 11.6571 15.356 11.6741 15.3725 11.7079C15.4057 11.7418 15.4305 11.7587 15.447 11.7587ZM14.8263 11.8095C14.8263 11.7757 14.8098 11.7418 14.7767 11.7079C14.7601 11.6741 14.727 11.6825 14.6774 11.7333C14.7105 11.7841 14.7601 11.8095 14.8263 11.8095ZM10.1339 11.9619C10.2332 12.0296 10.3077 11.9958 10.3573 11.8603C10.258 11.8942 10.1835 11.928 10.1339 11.9619ZM10.1587 12.9778C10.109 12.8931 10.0842 12.8339 10.0842 12.8L9.98489 12.8254L10.0097 12.927C10.0428 12.9608 10.0925 12.9778 10.1587 12.9778ZM10.258 12.9524L10.3821 12.927C10.3987 12.9101 10.3904 12.8677 10.3573 12.8L10.258 12.8508V12.9524ZM15.3477 13.4603C15.4305 13.3249 15.4636 13.2402 15.447 13.2063H15.3229L15.2236 13.3841L15.3477 13.4603ZM12.3684 13.9936L12.3435 13.9175H12.2939L12.3435 13.9936H12.3684ZM12.2194 15.1619C12.2691 15.0772 12.3104 15.0349 12.3435 15.0349C12.4263 15.0349 12.5008 15.0603 12.567 15.1111L12.6167 15.0349L12.4925 14.781C12.476 14.7302 12.4429 14.7048 12.3932 14.7048C12.3601 14.7048 12.3187 14.7217 12.2691 14.7556C12.2194 14.7894 12.1532 14.8656 12.0704 14.9841C12.0539 15.0011 12.0456 15.0349 12.0456 15.0857C12.0456 15.1365 12.0622 15.1619 12.0953 15.1619H12.2194Z" fill="#F90F0F"/>
<path d="M24.5971 15.8476C24.5805 15.8307 24.5474 15.8138 24.4978 15.7968C24.4481 15.7799 24.3819 15.763 24.2992 15.746H23.8523C23.8191 15.763 23.7529 15.7714 23.6536 15.7714C23.6371 15.7545 23.604 15.7376 23.5543 15.7206C23.5212 15.7037 23.4798 15.6868 23.4302 15.6698L23.1819 15.6952C23.0991 15.7122 23.0329 15.7122 22.9833 15.6952C22.9502 15.6952 22.9253 15.6952 22.9088 15.6952C22.8095 15.6952 22.7267 15.6614 22.6605 15.5937V15.4413C22.6109 15.272 22.6191 15.1619 22.6853 15.1111C22.6688 15.0942 22.6357 15.0857 22.586 15.0857C22.5695 15.0519 22.5695 15.0265 22.586 15.0095C22.6026 14.9757 22.6109 14.9503 22.6109 14.9333L22.6357 14.8571C22.6357 14.8063 22.586 14.7471 22.4867 14.6794C22.4867 14.6116 22.5446 14.5439 22.6605 14.4762V14.4508C22.5943 14.4169 22.5446 14.3746 22.5115 14.3238C22.495 14.2899 22.4784 14.2053 22.4619 14.0698C22.4453 13.9344 22.4288 13.7566 22.4122 13.5365C22.2964 13.4349 22.2384 13.2995 22.2384 13.1302C22.2384 13.0794 22.2798 12.9016 22.3626 12.5968C22.3129 12.546 22.2302 12.5122 22.1143 12.4952C22.0812 12.4614 22.0729 12.4275 22.0895 12.3937L22.1888 12.0889C22.1722 12.0889 22.1474 12.0466 22.1143 11.9619C22.0977 11.928 22.0812 11.8857 22.0646 11.8349C22.0481 11.7841 22.0233 11.7164 21.9902 11.6317C22.0067 11.581 22.015 11.4709 22.015 11.3016C22.015 11.3016 21.9984 11.2847 21.9653 11.2508C21.9653 11.2169 21.9488 11.1407 21.9157 11.0222C21.8991 10.8868 21.8743 10.7259 21.8412 10.5397C21.8081 10.3534 21.775 10.1926 21.7419 10.0571C21.7253 9.92169 21.7171 9.81164 21.7171 9.72698C21.7171 9.60847 21.7419 9.52381 21.7915 9.47302C21.775 9.43915 21.7005 9.40529 21.5681 9.37143C21.3695 9.37143 21.1791 9.43915 20.997 9.5746L20.8729 10.3365C20.8563 10.3534 20.8315 10.3704 20.7984 10.3873C20.7819 10.4042 20.757 10.4296 20.7239 10.4635V10.5143C20.7239 10.5312 20.7239 10.5651 20.7239 10.6159C20.7405 10.6497 20.757 10.6921 20.7736 10.7429C20.8398 10.7429 20.9143 10.7767 20.997 10.8444L20.9474 11.1492C20.9143 11.2677 20.9226 11.3608 20.9722 11.4286L20.7736 11.4032L20.7239 11.5048L20.7984 11.6063C20.8481 11.6741 20.8729 11.7249 20.8729 11.7587L20.6991 12.4952L20.7736 12.8C20.7736 12.8508 20.7653 12.8931 20.7488 12.927L20.6991 13.054C20.7157 13.1386 20.7322 13.2402 20.7488 13.3587C20.7653 13.4603 20.7819 13.5704 20.7984 13.6889C20.7984 13.7228 20.7405 13.7989 20.6246 13.9175C20.4922 14.0868 20.426 14.1714 20.426 14.1714C20.426 14.2392 20.4839 14.2899 20.5998 14.3238C20.7157 14.3407 20.7736 14.3492 20.7736 14.3492L20.6991 15.5429L20.6495 15.6444C20.6163 15.6106 20.5501 15.5598 20.4508 15.4921L20.3019 15.5175C20.2522 15.5344 20.2108 15.5429 20.1777 15.5429L19.8053 15.4159C19.8053 15.4159 19.7722 15.4328 19.706 15.4667C19.6398 15.5005 19.5984 15.5175 19.5819 15.5175C19.3667 15.5344 19.2177 15.5344 19.1349 15.5175C19.1018 15.5005 19.0522 15.4751 18.986 15.4413C18.9198 15.4074 18.8453 15.3651 18.7625 15.3143H18.688C18.6218 15.4328 18.5556 15.4921 18.4894 15.4921L18.1915 15.4159C18.1749 15.4328 18.1501 15.4413 18.117 15.4413C18.0839 15.4413 18.0508 15.4497 18.0177 15.4667C17.8853 15.4667 17.8191 15.4074 17.8191 15.2889C17.8687 15.2381 17.9267 15.1534 17.9929 15.0349C17.9763 15.0011 17.968 14.9079 17.968 14.7556C17.968 14.7217 17.968 14.6878 17.968 14.654C17.9846 14.6032 18.0011 14.5439 18.0177 14.4762L18.0673 14.273C18.0673 14.2561 18.0673 14.2222 18.0673 14.1714C18.0673 14.1206 18.0591 14.0529 18.0425 13.9683L17.9929 13.6635C18.0094 12.8677 18.0591 12.2497 18.1418 11.8095L18.2163 11.581C18.2163 11.5302 18.208 11.4794 18.1915 11.4286L18.1418 11.2762C18.1418 11.2593 18.1584 11.2169 18.1915 11.1492C18.1584 11.0984 18.1584 11.0307 18.1915 10.946L18.2908 10.7429C18.2908 10.7259 18.2908 10.7005 18.2908 10.6667C18.2908 10.6328 18.2825 10.582 18.266 10.5143L18.2163 10.2857C18.2163 10.2688 18.2411 10.1587 18.2908 9.95556C18.3405 9.75238 18.3736 9.64233 18.3901 9.6254C18.3239 9.52381 18.2825 9.42222 18.266 9.32064C18.2991 9.28677 18.3322 9.25291 18.3653 9.21905C18.3984 9.18519 18.4315 9.14286 18.4646 9.09206C18.4646 8.99048 18.4149 8.88042 18.3156 8.7619L18.4646 6.12063C18.4977 6.08677 18.5308 6.04444 18.5639 5.99365C18.6136 5.94286 18.6549 5.89206 18.688 5.84127C18.6715 5.82434 18.6384 5.81587 18.5887 5.81587L18.5142 5.35873C18.5142 5.20635 18.5225 5.0963 18.5391 5.02857L18.5142 4.95238C18.5308 4.93545 18.5556 4.89312 18.5887 4.8254V4.64762C18.5887 4.61376 18.5805 4.57989 18.5639 4.54603C18.5639 4.51217 18.5639 4.48677 18.5639 4.46984C18.6136 4.41905 18.6632 4.34286 18.7129 4.24127L18.5639 3.86032V3.55556C18.5805 3.50476 18.6053 3.4455 18.6384 3.37778C18.6715 3.31005 18.7046 3.23386 18.7377 3.14921C18.7377 3.13228 18.7294 3.12381 18.7129 3.12381C18.7129 3.10688 18.7129 3.08995 18.7129 3.07302C18.7129 3.02222 18.7211 2.97143 18.7377 2.92063C18.7708 2.86984 18.7956 2.81058 18.8122 2.74286C18.7625 2.69206 18.7129 2.61587 18.6632 2.51429L18.688 2.18413C18.688 2.1164 18.7708 1.99788 18.9363 1.82857C19.0853 1.67619 19.1515 1.54921 19.1349 1.44762L18.6136 1.24444C18.6467 1.15979 18.6963 1.10899 18.7625 1.09206L18.7129 0.406348C18.6632 0.321692 18.6384 0.262433 18.6384 0.228572C18.8039 0.160847 18.9115 0.135449 18.9612 0.15238C18.9943 0.15238 19.0522 0.186243 19.1349 0.253968C19.2012 0.321693 19.2674 0.355556 19.3336 0.355556C19.3667 0.321694 19.4081 0.287831 19.4577 0.253968C19.5239 0.220106 19.5901 0.194709 19.6563 0.177777C19.6894 0.21164 19.7391 0.253969 19.8053 0.304763C19.8881 0.338625 19.9708 0.380953 20.0536 0.431747L20.0784 0.330159L20.2522 0.279364C20.335 0.228572 20.3846 0.211641 20.4012 0.228572C20.4343 0.228572 20.5088 0.279365 20.6246 0.380952C20.7405 0.499471 20.815 0.55873 20.8481 0.55873C20.8812 0.55873 20.9557 0.516402 21.0715 0.431747C21.1543 0.397884 21.2205 0.372487 21.2701 0.355556C21.3364 0.338625 21.386 0.338625 21.4191 0.355556L21.5184 0.380952C21.5184 0.380952 21.5515 0.364021 21.6177 0.330159C21.6508 0.296296 21.6839 0.279364 21.7171 0.279364C21.7833 0.279364 21.8743 0.364021 21.9902 0.533334C22.0233 0.533334 22.0646 0.499472 22.1143 0.431747C22.164 0.380953 22.1971 0.364021 22.2136 0.380952L22.6109 0.55873C22.644 0.55873 22.6771 0.55873 22.7102 0.55873C22.7433 0.541799 22.7764 0.524868 22.8095 0.507936L22.9336 0.660318L23.455 0.736507C23.4716 0.753438 23.4881 0.77037 23.5047 0.787302C23.5212 0.804233 23.546 0.821164 23.5791 0.838095C23.8274 0.855026 24.0343 0.880423 24.1998 0.914286L24.6467 1.21905C24.6467 1.21905 24.6633 1.25291 24.6964 1.32063V1.34603C24.6964 1.46455 24.7792 1.5746 24.9447 1.67619L25.3419 1.90476V2.13333L25.4661 2.4127C25.4495 2.51429 25.4247 2.62434 25.3916 2.74286C25.3585 2.84444 25.3254 2.9545 25.2923 3.07302C25.2923 3.08995 25.3005 3.09841 25.3171 3.09841L25.4412 2.97143C25.5074 2.9037 25.5654 2.86984 25.615 2.86984L25.6647 2.89524C25.6812 2.91217 25.6978 2.96296 25.7143 3.04762C25.7309 3.13228 25.7557 3.25079 25.7888 3.40317L25.8633 3.53016V3.78413L25.7888 3.86032C25.8219 4.0127 25.8302 4.09735 25.8137 4.11429C25.764 4.13122 25.7143 4.18201 25.6647 4.26667C25.6647 4.26667 25.6812 4.2836 25.7143 4.31746C25.7309 4.33439 25.7888 4.34286 25.8881 4.34286V4.39365C25.8881 4.42751 25.8716 4.51217 25.8385 4.64762H25.8137C25.7971 4.64762 25.7723 4.70688 25.7392 4.8254C25.7061 4.94391 25.7061 5.00317 25.7392 5.00317C25.7888 5.00317 25.8302 4.98624 25.8633 4.95238C25.8799 4.91852 25.8881 4.87619 25.8881 4.8254C25.8881 4.7746 25.8881 4.76614 25.8881 4.8L25.8633 5.18095C25.8468 5.19788 25.8219 5.24021 25.7888 5.30794C25.7888 5.37566 25.7806 5.46878 25.764 5.5873C25.764 5.70582 25.7557 5.84127 25.7392 5.99365L25.615 6.22222C25.5819 6.34074 25.5571 6.47619 25.5406 6.62857L25.5654 6.80635C25.5488 6.82328 25.5406 6.84021 25.5406 6.85714C25.5406 6.87407 25.5323 6.89947 25.5157 6.93333C25.4992 7.15344 25.4247 7.31428 25.2923 7.41587V7.51746C25.2923 7.55132 25.284 7.59365 25.2674 7.64444C25.2674 7.67831 25.2592 7.72064 25.2426 7.77143C25.1764 7.82222 24.9778 8.10159 24.6467 8.60952L24.4233 8.71111C24.324 8.7619 24.2578 8.8381 24.2247 8.93968C24.2743 9.02434 24.3157 9.13439 24.3488 9.26984C24.3488 9.38836 24.3074 9.44762 24.2247 9.44762C24.1254 9.44762 24.0757 9.45608 24.0757 9.47302C24.0757 9.52381 24.1336 9.54921 24.2495 9.54921C24.3323 9.54921 24.3736 9.6 24.3736 9.70159L24.3488 10.0063C24.0509 10.0571 23.9019 10.1079 23.9019 10.1587C23.9019 10.1926 24.0757 10.2265 24.4233 10.2603C24.4067 10.2772 24.3819 10.3534 24.3488 10.4889L24.4729 10.5651L24.6219 11.2L24.7212 11.3778C24.6054 11.4624 24.5061 11.581 24.4233 11.7333L24.4729 11.8349C24.5557 11.8857 24.6302 11.9704 24.6964 12.0889C24.7295 12.1397 24.7543 12.2243 24.7709 12.3429L24.9447 12.4698C24.9447 12.5037 24.9447 12.546 24.9447 12.5968C24.9447 12.6476 24.953 12.6984 24.9695 12.7492C24.953 12.7831 24.9447 12.8677 24.9447 13.0032C24.9943 13.054 25.0192 13.1217 25.0192 13.2063L25.0688 13.7651C25.0854 13.782 25.1019 13.8159 25.1185 13.8667C25.135 13.9175 25.1516 13.9852 25.1681 14.0698C25.0854 14.1545 25.044 14.2307 25.044 14.2984C25.0274 14.4 25.0605 14.4508 25.1433 14.4508C25.1599 14.4508 25.2012 14.4339 25.2674 14.4L25.2923 14.8317C25.2923 14.8317 25.375 15.0265 25.5406 15.4159C25.5571 15.4328 25.5654 15.4836 25.5654 15.5683C25.5654 15.7545 25.4992 15.8476 25.3668 15.8476C25.2178 15.8476 25.1185 15.8222 25.0688 15.7714C25.0192 15.7037 24.9861 15.6698 24.9695 15.6698C24.8867 15.7376 24.7626 15.7968 24.5971 15.8476ZM22.1391 1.32063C22.1557 1.28677 22.1474 1.25291 22.1143 1.21905C22.0812 1.18518 22.0481 1.18518 22.015 1.21905C22.015 1.25291 22.0564 1.28677 22.1391 1.32063ZM19.3336 2.59048L19.4329 2.51429C19.4329 2.49735 19.3998 2.49735 19.3336 2.51429C19.317 2.51429 19.317 2.53968 19.3336 2.59048ZM19.6315 2.79365C19.6812 2.81058 19.7308 2.78519 19.7805 2.71746C19.7474 2.6836 19.7225 2.66667 19.706 2.66667C19.6563 2.66667 19.6315 2.709 19.6315 2.79365ZM24.2247 2.99683C24.2743 3.01376 24.324 2.98836 24.3736 2.92063C24.3571 2.9037 24.3323 2.89524 24.2992 2.89524C24.2495 2.89524 24.2247 2.9291 24.2247 2.99683ZM22.015 7.1619L22.2633 6.98413L22.586 6.93333L22.6109 6.83175L22.5612 6.65397C22.5778 6.63704 22.6026 6.61164 22.6357 6.57778C22.6853 6.54391 22.7433 6.50159 22.8095 6.45079C22.826 6.38307 22.8757 6.32381 22.9584 6.27302C22.9584 6.1037 22.9833 5.8582 23.0329 5.53651C23.0329 5.46878 23.0329 5.38413 23.0329 5.28254C23.0495 5.18095 23.066 5.0709 23.0826 4.95238C23.0991 4.91852 23.1157 4.88466 23.1322 4.85079C23.1488 4.8 23.1653 4.74074 23.1819 4.67302L23.1322 4.57143C23.0991 4.5037 23.0826 4.46984 23.0826 4.46984C23.066 4.41905 23.0578 4.35132 23.0578 4.26667C23.0578 4.21587 23.0578 4.15661 23.0578 4.08889C23.0743 4.02116 23.0909 3.94497 23.1074 3.86032L23.1322 3.53016V3.47936C23.1322 3.31005 22.975 3.2 22.6605 3.14921L22.3377 3.09841L22.0646 3.04762C21.9984 3.04762 21.9239 3.05608 21.8412 3.07302C21.775 3.07302 21.7005 3.08148 21.6177 3.09841C21.5184 3.13228 21.4274 3.20847 21.3446 3.32698L21.3198 3.40317C21.237 3.48783 21.1791 3.57249 21.146 3.65714C21.146 3.67407 21.1543 3.70794 21.1708 3.75873C21.2039 3.79259 21.2288 3.85185 21.2453 3.93651L21.3446 4.21587C21.3115 4.24974 21.2619 4.31746 21.1957 4.41905C21.1791 4.48677 21.1543 4.5545 21.1212 4.62222C21.1046 4.68995 21.0798 4.76614 21.0467 4.85079C21.0467 4.85079 21.0881 4.91005 21.1708 5.02857C21.2536 5.16402 21.295 5.23175 21.295 5.23175C21.2784 5.29947 21.2536 5.3672 21.2205 5.43492C21.2039 5.48571 21.1874 5.55344 21.1708 5.63809V5.99365L21.146 6.4254V6.50159C21.146 6.65397 21.1874 6.77249 21.2701 6.85714C21.3033 6.90794 21.3529 6.95873 21.4191 7.00952C21.4357 7.00952 21.477 6.98413 21.5433 6.93333C21.5929 6.88254 21.626 6.85714 21.6426 6.85714C21.6922 6.85714 21.7998 6.95873 21.9653 7.1619H22.015ZM23.8523 4.74921C23.9516 4.74921 24.084 4.62222 24.2495 4.36825C24.1998 4.31746 24.1667 4.26667 24.1502 4.21587L23.9267 4.13968C23.8605 4.13968 23.7778 4.19048 23.6785 4.29206C23.6785 4.42751 23.7364 4.57989 23.8523 4.74921ZM19.3584 5.23175C19.4081 5.24868 19.4577 5.22328 19.5074 5.15556C19.4743 5.12169 19.4494 5.10476 19.4329 5.10476C19.3832 5.10476 19.3584 5.14709 19.3584 5.23175ZM20.0039 7.69524C20.0205 7.67831 20.0288 7.65291 20.0288 7.61905C20.0288 7.56825 19.9956 7.54286 19.9294 7.54286C19.9129 7.59365 19.9377 7.64444 20.0039 7.69524ZM21.8164 7.64444C21.8495 7.66138 21.8991 7.63598 21.9653 7.56825C21.9488 7.55132 21.9157 7.54286 21.866 7.54286C21.8164 7.54286 21.7998 7.57672 21.8164 7.64444ZM23.6785 8.45714L23.7529 8.40635C23.7529 8.37249 23.7447 8.34709 23.7281 8.33016L23.6785 8.45714ZM20.7488 8.93968C20.7653 8.90582 20.757 8.87196 20.7239 8.83809C20.7074 8.80423 20.6743 8.8127 20.6246 8.86349C20.6246 8.91429 20.666 8.93968 20.7488 8.93968ZM22.6605 9.21905C22.7102 9.23598 22.7515 9.22751 22.7846 9.19365C22.8012 9.17672 22.7929 9.13439 22.7598 9.06667C22.7267 9.06667 22.6936 9.11746 22.6605 9.21905ZM23.8026 10.8444C23.8191 10.8106 23.8109 10.7767 23.7778 10.7429C23.7612 10.7259 23.7198 10.7344 23.6536 10.7683C23.6536 10.819 23.7033 10.8444 23.8026 10.8444ZM23.0081 12.8254C23.0412 12.8254 23.0909 12.8 23.1571 12.7492C23.2233 12.7153 23.2647 12.6984 23.2812 12.6984H23.306V12.3937L23.0081 12.3175C23.0081 12.4021 23.0164 12.4529 23.0329 12.4698C23.0329 12.4698 23.0247 12.5291 23.0081 12.6476C22.9916 12.6815 22.9833 12.7323 22.9833 12.8C22.9833 12.8169 22.9916 12.8254 23.0081 12.8254ZM18.8867 13.1556C18.986 13.1048 19.0356 13.054 19.0356 13.0032C19.0356 12.9354 18.9777 12.8762 18.8618 12.8254L18.6632 12.7238L18.6136 12.7746C18.6467 12.8423 18.688 12.9101 18.7377 12.9778C18.7874 13.0286 18.837 13.0878 18.8867 13.1556ZM18.7625 14.6032C18.7791 14.5693 18.7708 14.5354 18.7377 14.5016C18.7211 14.4677 18.688 14.4762 18.6384 14.527C18.6384 14.5778 18.6798 14.6032 18.7625 14.6032ZM19.3832 14.5016H19.3087C19.3253 14.5185 19.3501 14.5608 19.3832 14.6286V14.5016Z" fill="#F90F0F"/>
<path d="M33.2772 15.8476C33.2606 15.8307 33.2275 15.8138 33.1778 15.7968C33.1282 15.7799 33.062 15.763 32.9792 15.746H32.5323C32.4992 15.763 32.433 15.7714 32.3337 15.7714C32.3171 15.7545 32.284 15.7376 32.2344 15.7206C32.2013 15.7037 32.1599 15.6868 32.1102 15.6698L31.862 15.6952C31.7792 15.7122 31.713 15.7122 31.6633 15.6952C31.6302 15.6952 31.6054 15.6952 31.5889 15.6952C31.4895 15.6952 31.4068 15.6614 31.3406 15.5937V15.4413C31.2909 15.272 31.2992 15.1619 31.3654 15.1111C31.3489 15.0942 31.3158 15.0857 31.2661 15.0857C31.2495 15.0519 31.2495 15.0265 31.2661 15.0095C31.2826 14.9757 31.2909 14.9503 31.2909 14.9333L31.3158 14.8571C31.3158 14.8063 31.2661 14.7471 31.1668 14.6794C31.1668 14.6116 31.2247 14.5439 31.3406 14.4762V14.4508C31.2744 14.4169 31.2247 14.3746 31.1916 14.3238C31.1751 14.2899 31.1585 14.2053 31.142 14.0698C31.1254 13.9344 31.1089 13.7566 31.0923 13.5365C30.9764 13.4349 30.9185 13.2995 30.9185 13.1302C30.9185 13.0794 30.9599 12.9016 31.0426 12.5968C30.993 12.546 30.9102 12.5122 30.7944 12.4952C30.7613 12.4614 30.753 12.4275 30.7695 12.3937L30.8689 12.0889C30.8523 12.0889 30.8275 12.0466 30.7944 11.9619C30.7778 11.928 30.7613 11.8857 30.7447 11.8349C30.7282 11.7841 30.7033 11.7164 30.6702 11.6317C30.6868 11.581 30.6951 11.4709 30.6951 11.3016C30.6951 11.3016 30.6785 11.2847 30.6454 11.2508C30.6454 11.2169 30.6288 11.1407 30.5957 11.0222C30.5792 10.8868 30.5544 10.7259 30.5213 10.5397C30.4882 10.3534 30.4551 10.1926 30.4219 10.0571C30.4054 9.92169 30.3971 9.81164 30.3971 9.72698C30.3971 9.60847 30.4219 9.52381 30.4716 9.47302C30.4551 9.43915 30.3806 9.40529 30.2482 9.37143C30.0495 9.37143 29.8592 9.43915 29.6771 9.5746L29.553 10.3365C29.5364 10.3534 29.5116 10.3704 29.4785 10.3873C29.4619 10.4042 29.4371 10.4296 29.404 10.4635V10.5143C29.404 10.5312 29.404 10.5651 29.404 10.6159C29.4206 10.6497 29.4371 10.6921 29.4537 10.7429C29.5199 10.7429 29.5944 10.7767 29.6771 10.8444L29.6275 11.1492C29.5944 11.2677 29.6026 11.3608 29.6523 11.4286L29.4537 11.4032L29.404 11.5048L29.4785 11.6063C29.5281 11.6741 29.553 11.7249 29.553 11.7587L29.3792 12.4952L29.4537 12.8C29.4537 12.8508 29.4454 12.8931 29.4288 12.927L29.3792 13.054C29.3957 13.1386 29.4123 13.2402 29.4288 13.3587C29.4454 13.4603 29.4619 13.5704 29.4785 13.6889C29.4785 13.7228 29.4206 13.7989 29.3047 13.9175C29.1723 14.0868 29.1061 14.1714 29.1061 14.1714C29.1061 14.2392 29.164 14.2899 29.2799 14.3238C29.3957 14.3407 29.4537 14.3492 29.4537 14.3492L29.3792 15.5429L29.3295 15.6444C29.2964 15.6106 29.2302 15.5598 29.1309 15.4921L28.9819 15.5175C28.9323 15.5344 28.8909 15.5429 28.8578 15.5429L28.4854 15.4159C28.4854 15.4159 28.4523 15.4328 28.3861 15.4667C28.3199 15.5005 28.2785 15.5175 28.2619 15.5175C28.0467 15.5344 27.8978 15.5344 27.815 15.5175C27.7819 15.5005 27.7323 15.4751 27.666 15.4413C27.5998 15.4074 27.5254 15.3651 27.4426 15.3143H27.3681C27.3019 15.4328 27.2357 15.4921 27.1695 15.4921L26.8716 15.4159C26.855 15.4328 26.8302 15.4413 26.7971 15.4413C26.764 15.4413 26.7309 15.4497 26.6978 15.4667C26.5653 15.4667 26.4991 15.4074 26.4991 15.2889C26.5488 15.2381 26.6067 15.1534 26.6729 15.0349C26.6564 15.0011 26.6481 14.9079 26.6481 14.7556C26.6481 14.7217 26.6481 14.6878 26.6481 14.654C26.6647 14.6032 26.6812 14.5439 26.6978 14.4762L26.7474 14.273C26.7474 14.2561 26.7474 14.2222 26.7474 14.1714C26.7474 14.1206 26.7391 14.0529 26.7226 13.9683L26.6729 13.6635C26.6895 12.8677 26.7391 12.2497 26.8219 11.8095L26.8964 11.581C26.8964 11.5302 26.8881 11.4794 26.8716 11.4286L26.8219 11.2762C26.8219 11.2593 26.8385 11.2169 26.8716 11.1492C26.8385 11.0984 26.8385 11.0307 26.8716 10.946L26.9709 10.7429C26.9709 10.7259 26.9709 10.7005 26.9709 10.6667C26.9709 10.6328 26.9626 10.582 26.946 10.5143L26.8964 10.2857C26.8964 10.2688 26.9212 10.1587 26.9709 9.95556C27.0205 9.75238 27.0536 9.64233 27.0702 9.6254C27.004 9.52381 26.9626 9.42222 26.946 9.32064C26.9791 9.28677 27.0122 9.25291 27.0454 9.21905C27.0785 9.18519 27.1116 9.14286 27.1447 9.09206C27.1447 8.99048 27.095 8.88042 26.9957 8.7619L27.1447 6.12063C27.1778 6.08677 27.2109 6.04444 27.244 5.99365C27.2936 5.94286 27.335 5.89206 27.3681 5.84127C27.3516 5.82434 27.3185 5.81587 27.2688 5.81587L27.1943 5.35873C27.1943 5.20635 27.2026 5.0963 27.2191 5.02857L27.1943 4.95238C27.2109 4.93545 27.2357 4.89312 27.2688 4.8254V4.64762C27.2688 4.61376 27.2605 4.57989 27.244 4.54603C27.244 4.51217 27.244 4.48677 27.244 4.46984C27.2936 4.41905 27.3433 4.34286 27.3929 4.24127L27.244 3.86032V3.55556C27.2605 3.50476 27.2854 3.4455 27.3185 3.37778C27.3516 3.31005 27.3847 3.23386 27.4178 3.14921C27.4178 3.13228 27.4095 3.12381 27.3929 3.12381C27.3929 3.10688 27.3929 3.08995 27.3929 3.07302C27.3929 3.02222 27.4012 2.97143 27.4178 2.92063C27.4509 2.86984 27.4757 2.81058 27.4923 2.74286C27.4426 2.69206 27.3929 2.61587 27.3433 2.51429L27.3681 2.18413C27.3681 2.1164 27.4509 1.99788 27.6164 1.82857C27.7654 1.67619 27.8316 1.54921 27.815 1.44762L27.2936 1.24444C27.3267 1.15979 27.3764 1.10899 27.4426 1.09206L27.3929 0.406348C27.3433 0.321692 27.3185 0.262433 27.3185 0.228572C27.484 0.160847 27.5916 0.135449 27.6412 0.15238C27.6743 0.15238 27.7323 0.186243 27.815 0.253968C27.8812 0.321693 27.9474 0.355556 28.0136 0.355556C28.0467 0.321694 28.0881 0.287831 28.1378 0.253968C28.204 0.220106 28.2702 0.194709 28.3364 0.177777C28.3695 0.21164 28.4192 0.253969 28.4854 0.304763C28.5681 0.338625 28.6509 0.380953 28.7337 0.431747L28.7585 0.330159L28.9323 0.279364C29.015 0.228572 29.0647 0.211641 29.0812 0.228572C29.1143 0.228572 29.1888 0.279365 29.3047 0.380952C29.4206 0.499471 29.495 0.55873 29.5281 0.55873C29.5612 0.55873 29.6357 0.516402 29.7516 0.431747C29.8344 0.397884 29.9006 0.372487 29.9502 0.355556C30.0164 0.338625 30.0661 0.338625 30.0992 0.355556L30.1985 0.380952C30.1985 0.380952 30.2316 0.364021 30.2978 0.330159C30.3309 0.296296 30.364 0.279364 30.3971 0.279364C30.4633 0.279364 30.5544 0.364021 30.6702 0.533334C30.7033 0.533334 30.7447 0.499472 30.7944 0.431747C30.844 0.380953 30.8771 0.364021 30.8937 0.380952L31.2909 0.55873C31.324 0.55873 31.3571 0.55873 31.3902 0.55873C31.4233 0.541799 31.4564 0.524868 31.4895 0.507936L31.6137 0.660318L32.1351 0.736507C32.1516 0.753438 32.1682 0.77037 32.1847 0.787302C32.2013 0.804233 32.2261 0.821164 32.2592 0.838095C32.5075 0.855026 32.7144 0.880423 32.8799 0.914286L33.3268 1.21905C33.3268 1.21905 33.3434 1.25291 33.3765 1.32063V1.34603C33.3765 1.46455 33.4592 1.5746 33.6247 1.67619L34.022 1.90476V2.13333L34.1461 2.4127C34.1296 2.51429 34.1048 2.62434 34.0717 2.74286C34.0385 2.84444 34.0054 2.9545 33.9723 3.07302C33.9723 3.08995 33.9806 3.09841 33.9972 3.09841L34.1213 2.97143C34.1875 2.9037 34.2454 2.86984 34.2951 2.86984L34.3448 2.89524C34.3613 2.91217 34.3779 2.96296 34.3944 3.04762C34.411 3.13228 34.4358 3.25079 34.4689 3.40317L34.5434 3.53016V3.78413L34.4689 3.86032C34.502 4.0127 34.5103 4.09735 34.4937 4.11429C34.4441 4.13122 34.3944 4.18201 34.3448 4.26667C34.3448 4.26667 34.3613 4.2836 34.3944 4.31746C34.411 4.33439 34.4689 4.34286 34.5682 4.34286V4.39365C34.5682 4.42751 34.5517 4.51217 34.5186 4.64762H34.4937C34.4772 4.64762 34.4523 4.70688 34.4192 4.8254C34.3861 4.94391 34.3861 5.00317 34.4192 5.00317C34.4689 5.00317 34.5103 4.98624 34.5434 4.95238C34.5599 4.91852 34.5682 4.87619 34.5682 4.8254C34.5682 4.7746 34.5682 4.76614 34.5682 4.8L34.5434 5.18095C34.5268 5.19788 34.502 5.24021 34.4689 5.30794C34.4689 5.37566 34.4606 5.46878 34.4441 5.5873C34.4441 5.70582 34.4358 5.84127 34.4192 5.99365L34.2951 6.22222C34.262 6.34074 34.2372 6.47619 34.2206 6.62857L34.2454 6.80635C34.2289 6.82328 34.2206 6.84021 34.2206 6.85714C34.2206 6.87407 34.2123 6.89947 34.1958 6.93333C34.1792 7.15344 34.1048 7.31428 33.9723 7.41587V7.51746C33.9723 7.55132 33.9641 7.59365 33.9475 7.64444C33.9475 7.67831 33.9392 7.72064 33.9227 7.77143C33.8565 7.82222 33.6579 8.10159 33.3268 8.60952L33.1034 8.71111C33.0041 8.7619 32.9378 8.8381 32.9047 8.93968C32.9544 9.02434 32.9958 9.13439 33.0289 9.26984C33.0289 9.38836 32.9875 9.44762 32.9047 9.44762C32.8054 9.44762 32.7558 9.45608 32.7558 9.47302C32.7558 9.52381 32.8137 9.54921 32.9296 9.54921C33.0123 9.54921 33.0537 9.6 33.0537 9.70159L33.0289 10.0063C32.7309 10.0571 32.582 10.1079 32.582 10.1587C32.582 10.1926 32.7558 10.2265 33.1034 10.2603C33.0868 10.2772 33.062 10.3534 33.0289 10.4889L33.153 10.5651L33.302 11.2L33.4013 11.3778C33.2854 11.4624 33.1861 11.581 33.1034 11.7333L33.153 11.8349C33.2358 11.8857 33.3103 11.9704 33.3765 12.0889C33.4096 12.1397 33.4344 12.2243 33.451 12.3429L33.6247 12.4698C33.6247 12.5037 33.6247 12.546 33.6247 12.5968C33.6247 12.6476 33.633 12.6984 33.6496 12.7492C33.633 12.7831 33.6247 12.8677 33.6247 13.0032C33.6744 13.054 33.6992 13.1217 33.6992 13.2063L33.7489 13.7651C33.7654 13.782 33.782 13.8159 33.7985 13.8667C33.8151 13.9175 33.8316 13.9852 33.8482 14.0698C33.7654 14.1545 33.7241 14.2307 33.7241 14.2984C33.7075 14.4 33.7406 14.4508 33.8234 14.4508C33.8399 14.4508 33.8813 14.4339 33.9475 14.4L33.9723 14.8317C33.9723 14.8317 34.0551 15.0265 34.2206 15.4159C34.2372 15.4328 34.2454 15.4836 34.2454 15.5683C34.2454 15.7545 34.1792 15.8476 34.0468 15.8476C33.8979 15.8476 33.7985 15.8222 33.7489 15.7714C33.6992 15.7037 33.6661 15.6698 33.6496 15.6698C33.5668 15.7376 33.4427 15.7968 33.2772 15.8476ZM30.8192 1.32063C30.8357 1.28677 30.8275 1.25291 30.7944 1.21905C30.7613 1.18518 30.7282 1.18518 30.6951 1.21905C30.6951 1.25291 30.7364 1.28677 30.8192 1.32063ZM28.0136 2.59048L28.113 2.51429C28.113 2.49735 28.0799 2.49735 28.0136 2.51429C27.9971 2.51429 27.9971 2.53968 28.0136 2.59048ZM28.3116 2.79365C28.3612 2.81058 28.4109 2.78519 28.4605 2.71746C28.4274 2.6836 28.4026 2.66667 28.3861 2.66667C28.3364 2.66667 28.3116 2.709 28.3116 2.79365ZM32.9047 2.99683C32.9544 3.01376 33.0041 2.98836 33.0537 2.92063C33.0372 2.9037 33.0123 2.89524 32.9792 2.89524C32.9296 2.89524 32.9047 2.9291 32.9047 2.99683ZM30.6951 7.1619L30.9433 6.98413L31.2661 6.93333L31.2909 6.83175L31.2413 6.65397C31.2578 6.63704 31.2827 6.61164 31.3158 6.57778C31.3654 6.54391 31.4233 6.50159 31.4895 6.45079C31.5061 6.38307 31.5558 6.32381 31.6385 6.27302C31.6385 6.1037 31.6633 5.8582 31.713 5.53651C31.713 5.46878 31.713 5.38413 31.713 5.28254C31.7296 5.18095 31.7461 5.0709 31.7627 4.95238C31.7792 4.91852 31.7958 4.88466 31.8123 4.85079C31.8289 4.8 31.8454 4.74074 31.862 4.67302L31.8123 4.57143C31.7792 4.5037 31.7627 4.46984 31.7627 4.46984C31.7461 4.41905 31.7378 4.35132 31.7378 4.26667C31.7378 4.21587 31.7378 4.15661 31.7378 4.08889C31.7544 4.02116 31.7709 3.94497 31.7875 3.86032L31.8123 3.53016V3.47936C31.8123 3.31005 31.6551 3.2 31.3406 3.14921L31.0178 3.09841L30.7447 3.04762C30.6785 3.04762 30.604 3.05608 30.5213 3.07302C30.4551 3.07302 30.3806 3.08148 30.2978 3.09841C30.1985 3.13228 30.1075 3.20847 30.0247 3.32698L29.9999 3.40317C29.9171 3.48783 29.8592 3.57249 29.8261 3.65714C29.8261 3.67407 29.8344 3.70794 29.8509 3.75873C29.884 3.79259 29.9088 3.85185 29.9254 3.93651L30.0247 4.21587C29.9916 4.24974 29.9419 4.31746 29.8757 4.41905C29.8592 4.48677 29.8344 4.5545 29.8013 4.62222C29.7847 4.68995 29.7599 4.76614 29.7268 4.85079C29.7268 4.85079 29.7681 4.91005 29.8509 5.02857C29.9337 5.16402 29.975 5.23175 29.975 5.23175C29.9585 5.29947 29.9337 5.3672 29.9006 5.43492C29.884 5.48571 29.8675 5.55344 29.8509 5.63809V5.99365L29.8261 6.4254V6.50159C29.8261 6.65397 29.8675 6.77249 29.9502 6.85714C29.9833 6.90794 30.033 6.95873 30.0992 7.00952C30.1157 7.00952 30.1571 6.98413 30.2233 6.93333C30.273 6.88254 30.3061 6.85714 30.3226 6.85714C30.3723 6.85714 30.4799 6.95873 30.6454 7.1619H30.6951ZM32.5323 4.74921C32.6316 4.74921 32.764 4.62222 32.9296 4.36825C32.8799 4.31746 32.8468 4.26667 32.8303 4.21587L32.6068 4.13968C32.5406 4.13968 32.4578 4.19048 32.3585 4.29206C32.3585 4.42751 32.4165 4.57989 32.5323 4.74921ZM28.0385 5.23175C28.0881 5.24868 28.1378 5.22328 28.1874 5.15556C28.1543 5.12169 28.1295 5.10476 28.113 5.10476C28.0633 5.10476 28.0385 5.14709 28.0385 5.23175ZM28.684 7.69524C28.7005 7.67831 28.7088 7.65291 28.7088 7.61905C28.7088 7.56825 28.6757 7.54286 28.6095 7.54286C28.593 7.59365 28.6178 7.64444 28.684 7.69524ZM30.4964 7.64444C30.5295 7.66138 30.5792 7.63598 30.6454 7.56825C30.6288 7.55132 30.5957 7.54286 30.5461 7.54286C30.4964 7.54286 30.4799 7.57672 30.4964 7.64444ZM32.3585 8.45714L32.433 8.40635C32.433 8.37249 32.4247 8.34709 32.4082 8.33016L32.3585 8.45714ZM29.4288 8.93968C29.4454 8.90582 29.4371 8.87196 29.404 8.83809C29.3875 8.80423 29.3543 8.8127 29.3047 8.86349C29.3047 8.91429 29.3461 8.93968 29.4288 8.93968ZM31.3406 9.21905C31.3902 9.23598 31.4316 9.22751 31.4647 9.19365C31.4813 9.17672 31.473 9.13439 31.4399 9.06667C31.4068 9.06667 31.3737 9.11746 31.3406 9.21905ZM32.4827 10.8444C32.4992 10.8106 32.4909 10.7767 32.4578 10.7429C32.4413 10.7259 32.3999 10.7344 32.3337 10.7683C32.3337 10.819 32.3834 10.8444 32.4827 10.8444ZM31.6882 12.8254C31.7213 12.8254 31.7709 12.8 31.8371 12.7492C31.9033 12.7153 31.9447 12.6984 31.9613 12.6984H31.9861V12.3937L31.6882 12.3175C31.6882 12.4021 31.6964 12.4529 31.713 12.4698C31.713 12.4698 31.7047 12.5291 31.6882 12.6476C31.6716 12.6815 31.6633 12.7323 31.6633 12.8C31.6633 12.8169 31.6716 12.8254 31.6882 12.8254ZM27.5667 13.1556C27.6661 13.1048 27.7157 13.054 27.7157 13.0032C27.7157 12.9354 27.6578 12.8762 27.5419 12.8254L27.3433 12.7238L27.2936 12.7746C27.3267 12.8423 27.3681 12.9101 27.4178 12.9778C27.4674 13.0286 27.5171 13.0878 27.5667 13.1556ZM27.4426 14.6032C27.4592 14.5693 27.4509 14.5354 27.4178 14.5016C27.4012 14.4677 27.3681 14.4762 27.3185 14.527C27.3185 14.5778 27.3598 14.6032 27.4426 14.6032ZM28.0633 14.5016H27.9888C28.0054 14.5185 28.0302 14.5608 28.0633 14.6286V14.5016Z" fill="#F90F0F"/>
<path d="M39.6979 15.7714L39.3006 15.6952L39.0524 15.746C38.9862 15.746 38.9034 15.746 38.8041 15.746C38.7213 15.746 38.6386 15.7376 38.5558 15.7206L38.3324 15.619H38.0841C37.9848 15.5005 37.8275 15.4159 37.6123 15.3651C37.3972 15.3481 37.2482 15.2635 37.1654 15.1111L37.091 15.0349C37.0413 15.0519 36.9585 15.0434 36.8427 15.0095C36.7765 14.9249 36.6937 14.8317 36.5944 14.7302C36.4951 14.6286 36.3792 14.5101 36.2468 14.3746C36.2468 14.3407 36.2385 14.2984 36.222 14.2476C36.222 14.1968 36.2137 14.1376 36.1972 14.0698C36.1475 14.019 36.0896 13.9598 36.0234 13.8921C35.9737 13.8074 35.9158 13.7058 35.8496 13.5873C35.8827 13.4857 35.8827 13.3333 35.8496 13.1302L35.7751 13.0032V12.7492C35.7751 12.6646 35.7751 12.563 35.7751 12.4444C35.7751 12.3259 35.7668 12.2074 35.7503 12.0889C35.7006 12.0381 35.6509 11.9619 35.6013 11.8603L35.5516 11.3778L35.6013 11.073L35.6261 10.7683C35.6261 10.7513 35.6096 10.709 35.5765 10.6413V10.3619C35.5599 10.3111 35.5351 10.2349 35.502 10.1333L35.5765 9.39682L35.4275 8.33016L35.502 8.15238C35.5351 8.03386 35.5434 7.94921 35.5268 7.89841L35.4523 7.66984C35.4523 7.56825 35.4523 7.44127 35.4523 7.28889C35.4523 7.11958 35.444 6.92487 35.4275 6.70476C35.3613 6.62011 35.3282 6.47619 35.3282 6.27302C35.3116 6.1545 35.3116 6.06984 35.3282 6.01905C35.3778 5.90053 35.4109 5.8328 35.4275 5.81587L35.3033 5.68889C35.2868 5.51958 35.2785 5.37566 35.2785 5.25714C35.2785 5.12169 35.2785 4.99471 35.2785 4.87619C35.2785 4.75767 35.2785 4.65608 35.2785 4.57143C35.2785 4.46984 35.2868 4.38518 35.3033 4.31746C35.3696 4.16508 35.4192 4.08042 35.4523 4.06349C35.5351 4.04656 35.6178 3.95344 35.7006 3.78413L35.7254 3.75873C35.7254 3.72487 35.6592 3.66561 35.5268 3.58095C35.3944 3.4963 35.3282 3.42857 35.3282 3.37778C35.3447 3.34392 35.3613 3.31005 35.3778 3.27619C35.3944 3.24233 35.4109 3.19153 35.4275 3.12381C35.3944 2.98836 35.3778 2.84444 35.3778 2.69206C35.444 2.60741 35.5185 2.48889 35.6013 2.33651C35.7006 2.18413 35.8082 2.01482 35.924 1.82857V1.67619C35.9406 1.6254 35.9654 1.56614 35.9985 1.49841C36.0316 1.43069 36.0647 1.36296 36.0978 1.29524L36.2468 1.19365C36.3296 1.14286 36.4537 1.04127 36.6192 0.888889L36.9172 0.609523C36.9172 0.609523 36.9337 0.609523 36.9668 0.609523C36.9999 0.609523 37.0496 0.601058 37.1158 0.584127C37.1489 0.550265 37.1654 0.507937 37.1654 0.457143C37.2151 0.474074 37.2565 0.491005 37.2896 0.507936C37.3392 0.524868 37.3806 0.524868 37.4137 0.507936L37.513 0.48254C37.7944 0.279364 37.9599 0.177777 38.0096 0.177777L38.1337 0.228572C38.1337 0.228572 38.1337 0.237037 38.1337 0.253968C38.1503 0.253968 38.1668 0.253968 38.1834 0.253968C38.4151 0.253968 38.5227 0.194709 38.5061 0.076191C38.5889 0.025397 38.6551 0 38.7048 0C38.771 0.033862 38.8124 0.0846555 38.8289 0.15238C38.8289 0.169311 38.8703 0.177777 38.9531 0.177777C38.9862 0.143915 39.0275 0.118519 39.0772 0.101588C39.1434 0.0677245 39.2096 0.0423275 39.2758 0.0253965C39.342 0.0423275 39.4082 0.0677245 39.4744 0.101588C39.5406 0.118519 39.6151 0.135449 39.6979 0.15238L39.8965 0.126984H39.971C40.0207 0.126984 40.062 0.135449 40.0951 0.15238C40.1448 0.15238 40.1944 0.160846 40.2441 0.177777C40.2607 0.262434 40.3186 0.338625 40.4179 0.406348H40.4924C40.5917 0.406348 40.7158 0.431745 40.8648 0.48254C40.8814 0.499471 40.8979 0.533333 40.9145 0.584127C40.931 0.617989 40.9476 0.660317 40.9641 0.711111V0.863491L41.0138 0.888889C41.08 0.821164 41.1545 0.787302 41.2372 0.787302H41.262C41.3614 0.787302 41.4855 0.888889 41.6345 1.09206C41.651 1.10899 41.6676 1.15132 41.6841 1.21905C41.7007 1.26984 41.7172 1.33757 41.7338 1.42222L41.8579 1.49841C41.8745 1.49841 41.891 1.54074 41.9076 1.6254C41.9407 1.64233 42.0069 1.70159 42.1062 1.80317L42.28 1.87936C42.28 1.96402 42.2469 2.04868 42.1807 2.13333C42.1145 2.25185 42.0814 2.34497 42.0814 2.4127V2.48889C42.1145 2.62434 42.2552 2.78519 42.5034 2.97143L42.6524 3.32698C42.6524 3.32698 42.6441 3.36085 42.6276 3.42857C42.611 3.47936 42.5862 3.56402 42.5531 3.68254C42.5531 3.73333 42.5614 3.7672 42.5779 3.78413C42.5283 4.05503 42.5034 4.2328 42.5034 4.31746L42.6276 4.59683C42.6276 4.64762 42.5697 4.70688 42.4538 4.7746C42.3379 4.84233 42.28 4.89312 42.28 4.92698V4.95238C42.3628 4.98624 42.4372 5.03704 42.5034 5.10476C42.5862 5.15556 42.6607 5.21481 42.7269 5.28254C42.7269 5.29947 42.7103 5.3418 42.6772 5.40952L42.6276 5.51111C42.6441 5.5619 42.6524 5.67196 42.6524 5.84127C42.6359 5.92593 42.6276 5.95979 42.6276 5.94286C42.6276 5.92593 42.6276 5.93439 42.6276 5.96825L42.6524 6.4254V6.45079L42.6276 6.55238C42.6938 6.65397 42.7517 6.80635 42.8014 7.00952V7.06032C42.8014 7.11111 42.7765 7.17884 42.7269 7.26349L42.6524 7.41587V7.49206C42.6524 7.62751 42.6772 7.84762 42.7269 8.15238L42.6276 8.17778C42.5779 8.17778 42.5531 8.19471 42.5531 8.22857C42.5531 8.22857 42.5945 8.2709 42.6772 8.35556C42.6772 8.52487 42.7186 8.62646 42.8014 8.66032C42.8676 8.71111 42.9007 8.7873 42.9007 8.88889C42.8676 8.97355 42.8676 9.10899 42.9007 9.29524C42.8841 9.39682 42.8262 9.44762 42.7269 9.44762C42.6938 9.44762 42.669 9.43915 42.6524 9.42222C42.6359 9.40529 42.611 9.39682 42.5779 9.39682C42.5117 9.43069 42.4538 9.47301 42.4041 9.52381C42.4869 9.5746 42.5448 9.6 42.5779 9.6C42.6276 9.6 42.6855 9.5746 42.7517 9.52381C42.8014 9.54074 42.8262 9.60847 42.8262 9.72698L42.851 9.98095C42.9007 10.0148 42.9338 10.0741 42.9503 10.1587C42.9503 10.2434 42.9172 10.3196 42.851 10.3873C42.851 10.3873 42.8676 10.4042 42.9007 10.4381L42.9752 10.5397L42.9255 10.6667C42.909 10.7175 42.9007 10.7598 42.9007 10.7937C42.9007 10.8275 42.9007 10.8529 42.9007 10.8698L42.8014 10.946C42.9338 11.1831 43 11.3439 43 11.4286L42.9752 11.5048C42.9752 11.5217 42.9669 11.5386 42.9503 11.5556C42.9338 11.5556 42.9255 11.564 42.9255 11.581C42.9421 11.6148 42.9503 11.6656 42.9503 11.7333C42.9503 11.7841 42.9503 11.8434 42.9503 11.9111C42.9172 11.928 42.8676 11.9873 42.8014 12.0889L42.851 12.6222V12.7238C42.851 12.8593 42.8262 12.9524 42.7766 13.0032L42.7021 13.0794L42.6772 13.3333C42.5448 13.5196 42.4786 13.6042 42.4786 13.5873C42.4786 13.6042 42.5034 13.6296 42.5531 13.6635C42.5365 13.6804 42.52 13.6974 42.5034 13.7143C42.4869 13.7143 42.4703 13.7312 42.4538 13.7651L42.429 14.0444C42.4124 14.0614 42.3048 14.163 42.1062 14.3492C42.0069 14.4169 41.949 14.5185 41.9324 14.654C41.8 14.7386 41.6924 14.7979 41.6096 14.8317C41.6262 14.8148 41.6096 14.8063 41.56 14.8063L41.2372 15.2889C41.2041 15.3058 41.1627 15.3143 41.1131 15.3143C41.08 15.3143 41.0303 15.3228 40.9641 15.3397L40.7655 15.4667C40.7324 15.4667 40.691 15.4667 40.6413 15.4667C40.6082 15.4836 40.5586 15.5005 40.4924 15.5175L40.0455 15.746C40.0124 15.746 39.9875 15.7376 39.971 15.7206C39.9544 15.7037 39.9213 15.6952 39.8717 15.6952L39.6979 15.7714ZM40.1944 1.52381L40.2938 1.44762C40.2938 1.43069 40.2607 1.43069 40.1944 1.44762V1.52381ZM40.5172 1.67619C40.5669 1.69312 40.6165 1.66772 40.6662 1.6C40.6496 1.58307 40.6165 1.5746 40.5669 1.5746C40.5338 1.5746 40.5172 1.60846 40.5172 1.67619ZM39.2013 2.26032L39.3255 2.23492L39.2758 2.13333C39.1931 2.1672 39.1682 2.20952 39.2013 2.26032ZM39.0772 13.4857C39.1103 13.4857 39.2096 13.4349 39.3751 13.3333C39.4579 13.418 39.5158 13.4603 39.5489 13.4603C39.6648 13.4434 39.7227 13.4095 39.7227 13.3587V13.181C39.7393 13.1302 39.822 13.0624 39.971 12.9778C40.0041 12.9947 40.0289 13.0709 40.0455 13.2063H40.1696L40.2193 13.1556C40.3186 12.9185 40.3682 12.8 40.3682 12.8L40.2938 12.5968C40.2441 12.4614 40.2193 12.3937 40.2193 12.3937L40.2441 12.2667C40.2441 12.2497 40.2441 12.2413 40.2441 12.2413C40.2607 12.2243 40.2689 12.2074 40.2689 12.1905C40.2524 12.1397 40.2441 12.0212 40.2441 11.8349C40.2607 11.6317 40.2772 11.5386 40.2938 11.5556C40.2607 11.4201 40.2358 11.3016 40.2193 11.2C40.2027 11.0815 40.1944 10.9884 40.1944 10.9206C40.1944 10.9037 40.2607 10.8275 40.3931 10.6921C40.5089 10.5905 40.5669 10.5312 40.5669 10.5143L40.3931 10.3111L40.4427 9.82857L40.542 9.6254C40.5255 9.60847 40.4593 9.5746 40.3434 9.52381C40.2441 9.47301 40.1944 9.43069 40.1944 9.39682V9.37143C40.1117 9.15132 40.0703 8.98201 40.0703 8.86349L40.1448 8.50794L40.1944 8.20317L40.12 8.05079C40.1365 7.93227 40.1365 7.77143 40.12 7.56825C40.0538 7.50053 40.0124 7.44127 39.9958 7.39048C39.9958 7.39048 40.0124 7.33122 40.0455 7.2127L40.0951 7.06032C40.0786 7.02645 40.062 6.99259 40.0455 6.95873C40.0289 6.92487 40.0124 6.88254 39.9958 6.83175L40.0703 6.29841L40.1944 6.24762C40.2441 6.21376 40.2689 6.17143 40.2689 6.12063C40.2027 6.1037 40.12 6.05291 40.0207 5.96825C39.9379 5.84974 39.8965 5.75661 39.8965 5.68889L39.9958 5.48571C40.0455 5.35026 40.0703 5.28254 40.0703 5.28254C40.0372 5.26561 39.9875 5.20635 39.9213 5.10476L40.0455 4.74921C40.0124 4.71534 39.9793 4.67302 39.9462 4.62222C39.9131 4.5545 39.88 4.48677 39.8469 4.41905C39.8469 4.38519 39.88 4.33439 39.9462 4.26667C39.9296 4.21587 39.9213 4.13122 39.9213 4.0127C39.9213 4.0127 39.9379 3.97884 39.971 3.91111C40.0041 3.87725 40.0207 3.84339 40.0207 3.80952L39.8965 3.63175L39.8717 3.2C39.8717 3.16614 39.8469 3.12381 39.7972 3.07302C39.7641 3.05608 39.7227 3.03069 39.6731 2.99683C39.64 2.96296 39.5903 2.9291 39.5241 2.89524L39.3751 2.61587C39.3917 2.6328 39.2096 2.64974 38.8289 2.66667H38.8041C38.7544 2.66667 38.6386 2.59894 38.4565 2.46349C38.2248 2.32804 38.0675 2.25185 37.9848 2.23492C37.9351 2.23492 37.8855 2.28571 37.8358 2.3873C37.8027 2.48889 37.7944 2.54815 37.811 2.56508C37.811 2.61587 37.8689 2.70053 37.9848 2.81905L38.1586 2.99683L38.0841 3.32698L37.9848 3.53016C37.9848 3.54709 37.9848 3.57249 37.9848 3.60635C37.9848 3.64021 37.9765 3.67407 37.9599 3.70794C37.9434 3.72487 37.9268 3.7418 37.9103 3.75873C37.8937 3.77566 37.8772 3.79259 37.8606 3.80952C37.8606 3.82645 37.8523 3.86032 37.8358 3.91111C37.8358 3.94497 37.8275 3.99577 37.811 4.06349L37.7613 4.24127C37.7613 4.27513 37.7861 4.31746 37.8358 4.36825C37.8855 4.41905 37.9103 4.46138 37.9103 4.49524L37.8855 4.8C37.902 4.83386 37.9186 4.88466 37.9351 4.95238C37.9682 5.02011 37.993 5.0963 38.0096 5.18095V5.25714C38.0096 5.27407 38.0096 5.30794 38.0096 5.35873C38.0096 5.40952 38.0013 5.46878 37.9848 5.53651C37.9682 5.5873 37.9765 5.62963 38.0096 5.66349L38.0592 5.68889C37.993 5.72275 37.9765 5.78201 38.0096 5.86667C38.0592 6.05291 38.0758 6.16296 38.0592 6.19683L37.9848 6.4C38.0013 6.46773 38.0096 6.54391 38.0096 6.62857C38.0096 6.6963 38.0179 6.78095 38.0344 6.88254C37.9848 6.93333 37.9351 7.00952 37.8855 7.11111L38.1337 7.26349C38.1668 7.31429 38.1917 7.39894 38.2082 7.51746C38.2082 7.63598 38.1751 7.76296 38.1089 7.89841C38.0592 7.91534 38.0096 7.96614 37.9599 8.05079C38.0261 8.08465 38.0841 8.16085 38.1337 8.27937L38.0344 8.66032C38.051 8.69418 38.0675 8.73651 38.0841 8.7873C38.1006 8.83809 38.1172 8.89735 38.1337 8.96508L38.1089 9.04127C38.0758 9.07513 38.0592 9.10053 38.0592 9.11746C38.0427 9.18519 38.0261 9.26984 38.0096 9.37143C38.0096 9.45608 38.0096 9.54074 38.0096 9.6254C38.0427 9.64233 38.0675 9.69312 38.0841 9.77778C38.0841 9.82857 38.0841 9.8963 38.0841 9.98095C38.1006 10.0487 38.1172 10.1249 38.1337 10.2095L38.2827 10.3619C38.3158 10.3958 38.3324 10.4635 38.3324 10.5651L38.1089 10.6667C38.0261 10.7005 37.9848 10.7767 37.9848 10.8952C37.9848 10.8952 38.0924 11.0053 38.3075 11.2254C38.3241 11.2423 38.3406 11.2508 38.3572 11.2508H38.3324L38.3075 11.2254C38.291 11.2254 38.2579 11.2254 38.2082 11.2254C38.2744 11.2254 38.3075 11.2762 38.3075 11.3778C38.291 11.4455 38.2661 11.5132 38.233 11.581C38.2165 11.6487 38.1917 11.7249 38.1586 11.8095C38.1586 11.8095 38.1999 11.8519 38.2827 11.9365C38.3489 12.0042 38.382 12.055 38.382 12.0889C38.382 12.0889 38.3572 12.1312 38.3075 12.2159C38.2579 12.2836 38.233 12.3344 38.233 12.3683C38.233 12.3683 38.2744 12.436 38.3572 12.5714C38.4399 12.7069 38.4813 12.7831 38.4813 12.8C38.4813 12.8677 38.4317 12.927 38.3324 12.9778V13.0794C38.3324 13.2487 38.3903 13.3249 38.5061 13.3079L38.6055 13.2825H38.6551C38.771 13.2825 38.862 13.3164 38.9282 13.3841C38.9944 13.4519 39.0441 13.4857 39.0772 13.4857ZM36.0482 2.48889C36.0978 2.50582 36.1475 2.47196 36.1972 2.3873C36.1806 2.37037 36.1558 2.3619 36.1227 2.3619C36.073 2.3619 36.0482 2.40423 36.0482 2.48889ZM37.0661 2.74286C37.1158 2.75979 37.1654 2.72593 37.2151 2.64127C37.1654 2.60741 37.1241 2.60741 37.091 2.64127C37.0744 2.6582 37.0661 2.69206 37.0661 2.74286ZM36.5944 3.53016C36.611 3.53016 36.6441 3.53016 36.6937 3.53016C36.7434 3.53016 36.8096 3.52169 36.8923 3.50476C36.9751 3.50476 37.0165 3.4709 37.0165 3.40317L36.9668 3.2254H36.8675L36.5944 3.53016ZM41.1379 3.96191C41.1545 3.94497 41.1627 3.91111 41.1627 3.86032C41.1296 3.82645 41.0883 3.80952 41.0386 3.80952L41.0138 3.93651L41.1379 3.96191ZM41.0386 5.63809L41.3614 5.40952C41.3117 5.37566 41.2869 5.3418 41.2869 5.30794C41.2869 5.18942 41.2455 5.0963 41.1627 5.02857L41.0634 5.05397C41.0469 5.0709 41.0469 5.12169 41.0634 5.20635C41.0469 5.25714 41.022 5.3164 40.9889 5.38413C40.9558 5.43492 40.9227 5.50265 40.8896 5.5873C40.9558 5.62116 41.0055 5.63809 41.0386 5.63809ZM35.9489 7.28889C35.9654 7.22116 35.9571 7.13651 35.924 7.03492L35.7503 7.11111L35.9489 7.28889ZM35.9737 7.9746C36.0565 7.94074 36.1392 7.88148 36.222 7.79682C36.1558 7.7291 36.0978 7.69524 36.0482 7.69524V7.74603C36.0482 7.77989 36.0234 7.83915 35.9737 7.92381V7.9746ZM41.9821 8.63492L42.2303 8.55873V8.45714L42.1062 8.43175L41.9821 8.63492ZM42.4538 8.7619C42.52 8.77884 42.5862 8.75344 42.6524 8.68571L42.5034 8.66032C42.4703 8.69418 42.4538 8.72804 42.4538 8.7619ZM42.0565 8.86349V8.8127H41.9821V8.86349H42.0565ZM36.3709 10.0063L36.3958 9.93016L36.222 9.90476L36.3709 10.0063ZM36.0978 10.6667L36.222 10.6159L36.0978 10.5905V10.6667ZM40.8896 11.4032C40.9227 11.4032 40.8979 11.3778 40.8151 11.327C40.8151 11.327 40.7986 11.3439 40.7655 11.3778C40.782 11.3947 40.8234 11.4032 40.8896 11.4032ZM36.9916 11.9111C37.0744 11.9111 37.1737 11.8688 37.2896 11.7841V11.6825C37.2068 11.581 37.1406 11.5132 37.091 11.4794L36.8675 11.8095C36.8675 11.8434 36.8841 11.8772 36.9172 11.9111H36.9916ZM41.56 11.7587L41.5352 11.6317C41.502 11.6317 41.4772 11.6402 41.4607 11.6571C41.4607 11.6571 41.4689 11.6741 41.4855 11.7079C41.5186 11.7418 41.5434 11.7587 41.56 11.7587ZM40.9393 11.8095C40.9393 11.7757 40.9227 11.7418 40.8896 11.7079C40.8731 11.6741 40.84 11.6825 40.7903 11.7333C40.8234 11.7841 40.8731 11.8095 40.9393 11.8095ZM36.2468 11.9619C36.3461 12.0296 36.4206 11.9958 36.4703 11.8603C36.3709 11.8942 36.2965 11.928 36.2468 11.9619ZM36.2716 12.9778C36.222 12.8931 36.1972 12.8339 36.1972 12.8L36.0978 12.8254L36.1227 12.927C36.1558 12.9608 36.2054 12.9778 36.2716 12.9778ZM36.3709 12.9524L36.4951 12.927C36.5116 12.9101 36.5034 12.8677 36.4703 12.8L36.3709 12.8508V12.9524ZM41.4607 13.4603C41.5434 13.3249 41.5765 13.2402 41.56 13.2063H41.4358L41.3365 13.3841L41.4607 13.4603ZM38.4813 13.9936L38.4565 13.9175H38.4068L38.4565 13.9936H38.4813ZM38.3324 15.1619C38.382 15.0772 38.4234 15.0349 38.4565 15.0349C38.5393 15.0349 38.6137 15.0603 38.6799 15.1111L38.7296 15.0349L38.6055 14.781C38.5889 14.7302 38.5558 14.7048 38.5061 14.7048C38.473 14.7048 38.4317 14.7217 38.382 14.7556C38.3324 14.7894 38.2661 14.8656 38.1834 14.9841C38.1668 15.0011 38.1586 15.0349 38.1586 15.0857C38.1586 15.1365 38.1751 15.1619 38.2082 15.1619H38.3324Z" fill="#F90F0F"/>
</svg>
