<svg width="13" height="14" viewBox="0 0 13 14" fill="none" xmlns="http://www.w3.org/2000/svg">
<path d="M5.82787 0C5.98472 0 6.14099 0 6.29784 0C6.34307 0.0174222 6.38655 0.0416889 6.43296 0.0516444C7.37936 0.259467 8.02264 0.853067 8.28053 1.82933C8.40155 2.28729 8.37746 2.79067 8.39861 3.27476C8.41565 3.66302 8.40214 4.05253 8.40214 4.46507C9.34678 4.46507 10.2456 4.46071 11.1438 4.46631C12.3857 4.4744 13.17 5.5048 12.9685 6.80836C12.7265 8.37013 12.515 9.93751 12.2906 11.5024C12.2483 11.7992 12.2165 12.0979 12.1613 12.3916C11.9927 13.2801 11.4587 13.7897 10.6451 14C7.60965 14 4.57481 14 1.53938 14C1.5241 13.9876 1.51059 13.9683 1.49356 13.9639C0.485466 13.6964 0.00257066 13.0436 0.00198319 11.9404C0.000808262 10.5012 -0.000954131 9.06205 0.00257066 7.62284C0.00492051 6.69884 0.583573 5.92978 1.44186 5.7848C1.89127 5.70889 2.35713 5.71511 2.81418 5.73378C3.11026 5.7456 3.25242 5.64978 3.37168 5.35671C4.02435 3.75449 4.69347 2.16036 5.37669 0.573067C5.47069 0.354667 5.67513 0.189778 5.82787 0ZM4.18767 12.7083C4.2564 12.7276 4.27461 12.7375 4.29341 12.7375C6.309 12.7394 8.32459 12.7437 10.3408 12.7381C10.7273 12.7369 10.9359 12.5067 10.997 12.0892C11.2631 10.2592 11.5292 8.42987 11.7989 6.60053C11.8811 6.04302 11.6344 5.72569 11.0968 5.72507C10.0793 5.7232 9.06127 5.72444 8.04378 5.72444C7.37172 5.72444 7.20665 5.544 7.20253 4.81973C7.19842 4.00151 7.20782 3.18204 7.17375 2.36507C7.1526 1.86107 6.78015 1.45164 6.35071 1.37138C6.31781 1.44231 6.28139 1.51511 6.24967 1.58978C5.59758 3.14844 4.94315 4.70587 4.29694 6.26764C4.2329 6.42258 4.19295 6.6024 4.19237 6.77102C4.18532 8.64702 4.18767 10.523 4.18767 12.399C4.18767 12.4998 4.18767 12.6012 4.18767 12.7083ZM2.99041 6.99564C2.55334 6.99564 2.1427 6.97262 1.73618 7.00311C1.4072 7.02738 1.19219 7.28871 1.19101 7.62347C1.18572 9.11556 1.18631 10.6083 1.19101 12.1004C1.19219 12.4133 1.3884 12.6915 1.67273 12.7139C2.10628 12.7481 2.54394 12.7226 2.98983 12.7226C2.99041 10.8061 2.99041 8.92204 2.99041 6.99564Z" fill="#F90E0E"/>
</svg>
