<svg width="100" height="90" viewBox="0 0 46 65" fill="none" xmlns="http://www.w3.org/2000/svg">
<path d="M0 8.21826L39.8715 0L42.2012 11.0913L3.52786 19.2428H43V30.5345H13.5789V60H2.26316V19.2428L0 8.21826Z" fill="#EC1F24"/>
<path d="M14.7048 56.986C14.7048 56.37 14.8258 55.831 15.0678 55.369C15.3171 54.8997 15.6581 54.5403 16.0908 54.291C16.5308 54.0343 17.0258 53.906 17.5758 53.906C18.1478 53.906 18.6391 54.038 19.0498 54.302C19.4678 54.566 19.7684 54.9033 19.9518 55.314V53.994H20.7218V60H19.9518V58.669C19.7611 59.0797 19.4568 59.4207 19.0388 59.692C18.6281 59.956 18.1368 60.088 17.5648 60.088C17.0221 60.088 16.5308 59.9597 16.0908 59.703C15.6581 59.4463 15.3171 59.0833 15.0678 58.614C14.8258 58.1447 14.7048 57.602 14.7048 56.986ZM19.9518 56.997C19.9518 56.513 19.8528 56.0877 19.6548 55.721C19.4568 55.3543 19.1854 55.072 18.8408 54.874C18.5034 54.676 18.1294 54.577 17.7188 54.577C17.2934 54.577 16.9121 54.6723 16.5748 54.863C16.2374 55.0537 15.9698 55.3323 15.7718 55.699C15.5811 56.0583 15.4858 56.4873 15.4858 56.986C15.4858 57.4773 15.5811 57.91 15.7718 58.284C15.9698 58.6507 16.2374 58.933 16.5748 59.131C16.9121 59.3217 17.2934 59.417 17.7188 59.417C18.1294 59.417 18.5034 59.318 18.8408 59.12C19.1854 58.922 19.4568 58.6397 19.6548 58.273C19.8528 57.9063 19.9518 57.481 19.9518 56.997ZM22.1276 56.997C22.1276 56.3737 22.2523 55.831 22.5016 55.369C22.7509 54.8997 23.0956 54.5403 23.5356 54.291C23.9756 54.0343 24.4779 53.906 25.0426 53.906C25.7833 53.906 26.3919 54.0893 26.8686 54.456C27.3526 54.8227 27.6643 55.3213 27.8036 55.952H26.9786C26.8759 55.5193 26.6523 55.182 26.3076 54.94C25.9703 54.6907 25.5486 54.566 25.0426 54.566C24.6393 54.566 24.2763 54.6577 23.9536 54.841C23.6309 55.0243 23.3743 55.2993 23.1836 55.666C23.0003 56.0253 22.9086 56.469 22.9086 56.997C22.9086 57.525 23.0003 57.9723 23.1836 58.339C23.3743 58.7057 23.6309 58.9807 23.9536 59.164C24.2763 59.3473 24.6393 59.439 25.0426 59.439C25.5486 59.439 25.9703 59.318 26.3076 59.076C26.6523 58.8267 26.8759 58.482 26.9786 58.042H27.8036C27.6643 58.658 27.3526 59.153 26.8686 59.527C26.3846 59.901 25.7759 60.088 25.0426 60.088C24.4779 60.088 23.9756 59.9633 23.5356 59.714C23.0956 59.4573 22.7509 59.098 22.5016 58.636C22.2523 58.1667 22.1276 57.6203 22.1276 56.997ZM30.2267 54.643V58.372C30.2267 58.7387 30.2964 58.9917 30.4357 59.131C30.575 59.2703 30.8207 59.34 31.1727 59.34H31.8767V60H31.0517C30.509 60 30.1057 59.8753 29.8417 59.626C29.5777 59.3693 29.4457 58.9513 29.4457 58.372V54.643H28.6097V53.994H29.4457V52.487H30.2267V53.994H31.8767V54.643H30.2267ZM35.7756 60.088C35.2109 60.088 34.7013 59.9633 34.2466 59.714C33.7993 59.4573 33.4436 59.098 33.1796 58.636C32.9229 58.1667 32.7946 57.6203 32.7946 56.997C32.7946 56.3737 32.9266 55.831 33.1906 55.369C33.4546 54.8997 33.8139 54.5403 34.2686 54.291C34.7233 54.0343 35.2329 53.906 35.7976 53.906C36.3623 53.906 36.8719 54.0343 37.3266 54.291C37.7886 54.5403 38.1479 54.8997 38.4046 55.369C38.6686 55.831 38.8006 56.3737 38.8006 56.997C38.8006 57.613 38.6686 58.1557 38.4046 58.625C38.1406 59.0943 37.7776 59.4573 37.3156 59.714C36.8536 59.9633 36.3403 60.088 35.7756 60.088ZM35.7756 59.417C36.1716 59.417 36.5383 59.329 36.8756 59.153C37.2129 58.9697 37.4843 58.6983 37.6896 58.339C37.9023 57.9723 38.0086 57.525 38.0086 56.997C38.0086 56.469 37.9059 56.0253 37.7006 55.666C37.4953 55.2993 37.2239 55.028 36.8866 54.852C36.5493 54.6687 36.1826 54.577 35.7866 54.577C35.3906 54.577 35.0239 54.6687 34.6866 54.852C34.3493 55.028 34.0779 55.2993 33.8726 55.666C33.6746 56.0253 33.5756 56.469 33.5756 56.997C33.5756 57.525 33.6746 57.9723 33.8726 58.339C34.0779 58.6983 34.3456 58.9697 34.6756 59.153C35.0129 59.329 35.3796 59.417 35.7756 59.417ZM40.9742 55.061C41.1429 54.687 41.3996 54.3973 41.7442 54.192C42.0962 53.9867 42.5252 53.884 43.0312 53.884V54.687H42.8222C42.2649 54.687 41.8176 54.8373 41.4802 55.138C41.1429 55.4387 40.9742 55.941 40.9742 56.645V60H40.2042V53.994H40.9742V55.061ZM44.5746 52.861C44.4206 52.861 44.2886 52.806 44.1786 52.696C44.0686 52.586 44.0136 52.4503 44.0136 52.289C44.0136 52.1277 44.0686 51.9957 44.1786 51.893C44.2886 51.783 44.4206 51.728 44.5746 51.728C44.7286 51.728 44.8606 51.783 44.9706 51.893C45.0806 51.9957 45.1356 52.1277 45.1356 52.289C45.1356 52.4503 45.0806 52.586 44.9706 52.696C44.8606 52.806 44.7286 52.861 44.5746 52.861ZM44.9596 53.994V60H44.1896V53.994H44.9596Z" fill="white"/>
</svg>
