<svg width="60" height="14" viewBox="0 0 60 14" fill="none" xmlns="http://www.w3.org/2000/svg">
<path d="M0 0.373002H1.89073L8.26471 6.38247L14.8121 0.373002H16.6368V13.6104H11.2123V9.31676L7.84363 13.0302L4.56582 9.41622V13.6104H0V0.373002Z" fill="#F90F0F"/>
<path d="M14.0439 13.6104L20.5995 1.0444C20.8252 0.596803 21.2408 0.298401 21.8463 0.149201C22.0224 0.104993 22.2398 0.0828893 22.4985 0.0828893C22.7572 0.0828893 23.0379 0.15749 23.3407 0.30669C23.6489 0.450365 23.8911 0.679692 24.0672 0.994671L31.1017 13.6104H24.4058L23.8856 12.3008H20.3188L19.873 13.6104H14.0439ZM20.7234 9.67318H23.3902L22.127 6.09236L20.7234 9.67318Z" fill="#F90F0F"/>
<path d="M36.8231 4.55891C36.8231 3.77975 36.5342 3.39017 35.9562 3.39017C35.7085 3.39017 35.3645 3.48135 34.9242 3.66371L33.826 4.1196V7.36057C35.8241 6.61456 36.8231 5.68068 36.8231 4.55891ZM41.7275 4.69982C41.7275 6.46813 40.8578 7.87172 39.1184 8.9106L42.7017 13.6104H36.1791L33.8591 9.77265V13.6104H28.4676V0.373002C31.9573 0.124334 34.2444 0 35.3287 0C36.4131 0 37.2387 0.0663114 37.8057 0.198934C39.3689 0.558121 40.4863 1.32623 41.1578 2.50326C41.5321 3.17742 41.722 3.90961 41.7275 4.69982Z" fill="#F90F0F"/>
<path d="M45.5912 0.373002L47.647 4.52575L49.5625 0.373002H54.4008L47.9195 13.5938C47.7764 13.8646 47.5259 14 47.1681 14C46.8159 14 46.5709 13.8646 46.4333 13.5938L39.6052 0.373002H45.5912Z" fill="#F90F0F"/>
<path d="M51.0071 13.6104L57.5627 1.0444C57.7884 0.596803 58.2039 0.298401 58.8094 0.149201C58.9856 0.104993 59.203 0.0828893 59.4617 0.0828893C59.7204 0.0828893 60.0011 0.15749 60.3038 0.30669C60.6121 0.450365 60.8543 0.679692 61.0304 0.994671L68.0649 13.6104H61.3689L60.8488 12.3008H57.282L56.8361 13.6104H51.0071ZM57.6865 9.67318H60.3534L59.0901 6.09236L57.6865 9.67318Z" fill="#F90F0F"/>
<path d="M65.4308 0.373002H70.5663V9.62345H75V13.6104H65.4308V0.373002Z" fill="#F90F0F"/>
</svg>
